<?xml version="1.0" encoding="utf-8"?>
<!-- Generator: Adobe Illustrator 26.5.0, SVG Export Plug-In . SVG Version: 6.00 Build 0)  -->
<svg version="1.1"
	 id="svg17" xmlns:sodipodi="http://sodipodi.sourceforge.net/DTD/sodipodi-0.dtd" xmlns:rdf="http://www.w3.org/1999/02/22-rdf-syntax-ns#" xmlns:cc="http://creativecommons.org/ns#" xmlns:dc="http://purl.org/dc/elements/1.1/" xmlns:svg="http://www.w3.org/2000/svg" xmlns:inkscape="http://www.inkscape.org/namespaces/inkscape" inkscape:version="1.0 (4035a4fb49, 2020-05-01)" sodipodi:docname="Aiways Logo 01.2021.svg"
	 xmlns="http://www.w3.org/2000/svg" xmlns:xlink="http://www.w3.org/1999/xlink" x="0px" y="0px" viewBox="0 0 288 288"
	 style="enable-background:new 0 0 288 288;" xml:space="preserve">
<style type="text/css">
	.st0{fill-rule:evenodd;clip-rule:evenodd;}
</style>
<sodipodi:namedview  bordercolor="#666666" borderopacity="1" fit-margin-bottom="0" fit-margin-left="0" fit-margin-right="0" fit-margin-top="0" gridtolerance="10" guidetolerance="10" id="namedview19" inkscape:current-layer="svg17" inkscape:cx="254.69483" inkscape:cy="144.34592" inkscape:document-rotation="0" inkscape:pageopacity="0" inkscape:pageshadow="2" inkscape:window-height="837" inkscape:window-maximized="1" inkscape:window-width="1600" inkscape:window-x="-8" inkscape:window-y="-8" inkscape:zoom="1.9615824" objecttolerance="10" pagecolor="#ffffff" showgrid="false">
	</sodipodi:namedview>
<path id="Fill-1" class="st0" d="M270.2,59h-72c-6.7,0-12.1,5.4-12.1,12v14.5c0,6.6,5.4,12,12.1,12h72c6.7,0,12.1-5.4,12.1-12V71
	C282.3,64.4,276.9,59,270.2,59"/>
<path id="Fill-3" class="st0" d="M270.2,135.9h-72c-6.7,0-12.1,5.4-12.1,12v14.5c0,6.6,5.4,12,12.1,12h72c6.7,0,12.1-5.4,12.1-12
	v-14.5C282.3,141.3,276.9,135.9,270.2,135.9"/>
<path id="Fill-5" class="st0" d="M174.1,97.5h-62.3c-6.7,0-12.1-5.4-12.1-12V71c0-6.6-5.4-12-12.1-12h-72C9,59,3.6,64.4,3.6,71v14.5
	c0,6.6,5.4,12,12.1,12h72h0h0c6.7,0,12.1,5.4,12.1,12v14.5c0,6.6-5.4,12-12.1,12h-72c-6.7,0-12.1,5.4-12.1,12v14.5
	c0,6.6,5.4,12,12.1,12h72c6.7,0,12.1-5.4,12.1-12v-14.5c0-6.6,5.4-12,12.1-12h62.3c6.7,0,12.1-5.4,12.1-12v-14.5
	C186.2,102.8,180.8,97.5,174.1,97.5"/>
<path id="Fill-7" class="st0" d="M167,204.9h-28.7c-6.4,0-8.6,3.4-8.6,7.6v16.2c0,0-0.1,0.3,0.3,0.3h5.7c0.3,0,0.3-0.3,0.3-0.3v-5.9
	h27.4c0.1,0,0.3,0,0.3-0.3v-5.1c0-0.2-0.2-0.3-0.3-0.3h-27.4V212c0-1.1,0.5-1.5,1.7-1.5h30.2c1.2,0,1.6,0.4,1.6,1.5v16.7h0
	c0,0.1,0,0.3,0.3,0.3h5.6c0.3,0,0.3-0.2,0.3-0.3v-16.2C175.6,208.3,173.4,204.9,167,204.9"/>
<path id="Fill-9" class="st0" d="M40.9,204.9H12.2c-6.4,0-8.6,3.4-8.6,7.6v16.2c0,0-0.1,0.3,0.3,0.3h5.7c0.3,0,0.3-0.3,0.3-0.3v-5.9
	h27.4c0.1,0,0.3,0,0.3-0.3v-5.1c0-0.2-0.2-0.3-0.3-0.3H9.8V212c0-1.1,0.5-1.5,1.7-1.5l15.1,0l15.1,0c1.2,0,1.6,0.4,1.6,1.5v16.7
	c0,0.1,0,0.3,0.3,0.3h5.6c0.3,0,0.3-0.2,0.3-0.3v-16.2C49.5,208.3,47.3,204.9,40.9,204.9"/>
<path id="Fill-11" class="st0" d="M63.8,204.9L63.8,204.9h-5.7h0c-0.3,0-0.3,0.2-0.3,0.3v23.5c0,0.1,0,0.3,0.3,0.3h5.6
	c0.3,0,0.3-0.2,0.3-0.3v-23.5C64.1,205.1,64.1,204.9,63.8,204.9"/>
<path id="Fill-13" class="st0" d="M277.4,214.2c-0.1,0-32.9,0-32.9,0c-0.6,0-0.9-0.2-0.9-0.8c0-0.4,0-1,0-2.1c0-0.6,0.3-0.9,1-0.9
	c0.4,0,34.7,0,38.2,0c0.1,0,0.3,0,0.3-0.3v-5.1c0-0.3-0.2-0.3-0.3-0.3h-38.9c-4.1,0-6.5,2.5-6.5,5.7v3.4c0,3.9,1.9,5.8,7.7,5.8
	c0,0,31.7,0,32.4,0c0.6,0,0.8,0.3,0.8,0.7v2.2c0,0.5-0.3,0.7-1,0.7h-38.9c-0.1,0-0.3,0-0.3,0.3v5.1v0c0,0.3,0.2,0.3,0.3,0.3h38.6
	c4.3,0,7.5-1.6,7.5-6v-3.2C284.4,216.3,281.9,214.2,277.4,214.2"/>
<path id="Fill-15" class="st0" d="M229.6,204.9L229.6,204.9h-5.7h0c-0.3,0-0.3,0.2-0.3,0.3v10.1c0,1.1-0.4,1.5-1.8,1.5h-30.7
	c-1.4,0-1.8-0.4-1.8-1.5v-10.1v0c0-0.1,0-0.3-0.3-0.3h0h-5.7h0c-0.3,0-0.3,0.2-0.3,0.3v9.6c0,4.2,2.2,7.6,8.6,7.6h11.7v6.3
	c0,0.1,0,0.3,0.3,0.3h5.7c0.3,0,0.3-0.2,0.3-0.3v-6.3h11.7c6.4,0,8.6-3.4,8.6-7.6v-9.6C229.9,205.1,229.9,204.9,229.6,204.9"/>
<path id="Fill-17" class="st0" d="M94.3,218.9h5.6c0.3,0,0.3-0.2,0.3-0.3v-13.4c0-0.1,0-0.3-0.3-0.3h-5.7h0c-0.2,0-0.3,0.2-0.3,0.3
	v13.3C94.1,218.7,94.1,218.9,94.3,218.9"/>
<path id="Fill-19" class="st0" d="M121.5,205L121.5,205h-5.7h0c-0.3,0-0.3,0.2-0.3,0.3v16.6c0,1.1-0.4,1.5-1.8,1.5H80.5
	c-1.4,0-1.8-0.5-1.8-1.5v-16.6c0-0.1,0-0.3-0.3-0.3h0h-5.7c-0.3,0-0.3,0.2-0.3,0.3v16.1c0,4.2,2.2,7.6,8.6,7.6h32.1
	c6.4,0,8.6-3.4,8.6-7.6v-16.1C121.8,205.1,121.8,205,121.5,205"/>
</svg>
