<?xml version="1.0" encoding="utf-8"?>
<!-- Generator: Adobe Illustrator 26.0.1, SVG Export Plug-In . SVG Version: 6.00 Build 0)  -->
<svg version="1.1" id="Layer_1" xmlns="http://www.w3.org/2000/svg" xmlns:xlink="http://www.w3.org/1999/xlink" x="0px" y="0px"
	 viewBox="0 0 288 288" style="enable-background:new 0 0 288 288;" xml:space="preserve">
<style type="text/css">
	.st0{fill:#231F20;}
</style>
<g>
	<g>
		<path d="M230.5,154.8c-10.9,0-20.9-3.8-28.8-10.2c-7.5,6.1-17,9.8-27.3,10.2c-11.5,0.4-22.1-3.5-30.4-10.2
			c-7.5,6.1-17,9.8-27.3,10.2c-11.5,0.4-22.1-3.5-30.4-10.2c-7.5,6.1-17,9.8-27.3,10.2c-25.4,0.9-46.7-19.1-47.5-44.5
			c-0.9-25.3,19-46.7,44.4-47.5h0.2H59c10.3,0.3,19.8,4.1,27.3,10.2c7.5-6.1,17-9.8,27.3-10.2h0.2h2.9C127,63.1,136.5,66.9,144,73
			c7.5-6.1,17-9.8,27.3-10.2h0.2h2.9c10.3,0.3,19.8,4.1,27.3,10.2c7.5-6.1,17-9.8,27.3-10.2h0.2h2.9c24.1,0.8,43.7,20.3,44.5,44.5
			c0.8,25.4-19.1,46.7-44.5,47.5C231.6,154.8,231.1,154.8,230.5,154.8z M150.9,137.8c6.4,4.9,14.5,7.7,23.2,7.4
			c7.8-0.3,15-3,20.8-7.4c-6.1-7.5-9.9-17-10.3-27.5c-0.4-11.5,3.5-22.2,10.3-30.5c-5.8-4.4-12.9-7.1-20.7-7.4h-2.6
			c-7.8,0.3-14.9,3-20.7,7.4c6.2,7.6,10,17.1,10.3,27.5C161.5,118.8,157.6,129.5,150.9,137.8z M93.2,137.8
			c6.4,4.9,14.5,7.7,23.2,7.4c7.8-0.3,15-3,20.8-7.4c-6.1-7.5-9.9-17-10.3-27.5c-0.4-11.5,3.5-22.2,10.3-30.5
			c-5.8-4.4-12.9-7.1-20.7-7.4h-2.6c-7.8,0.3-14.9,3-20.7,7.4c6.1,7.6,10,17.1,10.3,27.5C103.8,118.8,99.9,129.5,93.2,137.8z
			 M56.1,72.4C36.1,73.1,20.3,90,21,110c0.7,20.1,17.6,35.8,37.6,35.2c7.8-0.3,15-3,20.8-7.4c-6.1-7.5-9.9-17-10.3-27.5
			c-0.4-11.5,3.5-22.2,10.3-30.5c-5.8-4.4-12.9-7.1-20.7-7.4H56.1z M208.6,137.8c6.4,4.9,14.5,7.7,23.2,7.4
			c20.1-0.7,35.8-17.5,35.2-37.6c-0.6-19.1-16-34.5-35.1-35.2h-2.6c-7.8,0.3-14.9,3-20.7,7.4c6.1,7.6,10,17.1,10.3,27.5
			C219.2,118.8,215.3,129.5,208.6,137.8z M86.3,86.6c-5,6.5-7.8,14.6-7.5,23.4c0.3,7.9,3,15.1,7.5,21c5-6.5,7.8-14.6,7.5-23.4
			C93.6,99.7,90.8,92.5,86.3,86.6z M144,86.6c-5,6.5-7.8,14.6-7.5,23.4c0.3,7.9,3,15.1,7.5,21c5-6.5,7.8-14.6,7.5-23.4
			C151.3,99.7,148.5,92.5,144,86.6z M201.7,86.6c-5,6.5-7.8,14.6-7.5,23.4c0.3,7.9,3,15.1,7.5,21c5-6.5,7.8-14.6,7.5-23.4
			C209,99.7,206.2,92.5,201.7,86.6z"/>
	</g>
	<path class="st0" d="M181.2,175.6l11,12.2c-0.9,0-1.8-0.1-2.8-0.1c-15.2,0-27.7,5.8-27.7,18.3c0,10.1,12.4,18.3,27.7,18.3
		c15.2,0,27.7-8.2,27.7-18.3c0-9.7-12.6-22.6-19-30.5H181.2z M202.6,205.7c0,5.2-5.9,9.5-13.2,9.5c-7.3,0-13.2-4.2-13.2-9.5
		c0-5.2,5.9-9.5,13.2-9.5C196.6,196.2,202.6,200.5,202.6,205.7"/>
	<path class="st0" d="M144.4,208.4c0,10-16.4,10-16.4,0v-19.6h-14.1v21c0,20.5,44.4,20.7,44.4,0v-21h-13.8V208.4z"/>
	<path class="st0" d="M65.4,176.8l4.9,6L43,224.3h16.4l4.5-7.3H95l4.7,7.3h17.1L84,176.8H65.4z M69.7,207.3l9.4-15.5l9.8,15.5H69.7z
		"/>
	<rect x="221.8" y="187.2" class="st0" width="12.1" height="36.1"/>
</g>
</svg>
