<?xml version="1.0" encoding="utf-8"?>
<!-- Generator: Adobe Illustrator 26.0.1, SVG Export Plug-In . SVG Version: 6.00 Build 0)  -->
<svg version="1.1" id="Layer_1" xmlns="http://www.w3.org/2000/svg" xmlns:xlink="http://www.w3.org/1999/xlink" x="0px" y="0px"
	 viewBox="0 0 288 288" style="enable-background:new 0 0 288 288;" xml:space="preserve">
<g>
	<path d="M219,69C199,49,172.3,38,144,38C85.5,38,38,85.5,38,144c0,28.3,11,55,31.1,75c20,20,46.7,31.1,75,31.1
		c28.3,0,55-11,75-31.1c20-20,31.1-46.7,31.1-75C250,115.7,239,89,219,69z M144,246.4c-27.3,0-53.1-10.6-72.4-30
		c-19.3-19.3-30-45-30-72.4c0-27.3,10.6-53.1,30-72.4c19.3-19.3,45-30,72.4-30c27.3,0,53.1,10.6,72.4,30c19.3,19.3,30,45,30,72.4
		C246.4,200.4,200.4,246.4,144,246.4z"/>
	<path d="M144,45.8c-54.2,0-98.2,43.9-98.2,98.2c0,54.2,43.9,98.2,98.2,98.2c54.2,0,98.2-43.9,98.2-98.2
		C242.2,89.8,198.2,45.8,144,45.8z M129.7,51.2h7.8l7,18.4l7-18.4h7.8V77h-5.2V59l-6.8,18h-5.6l-6.8-18v18h-5.2V51.2z M64.5,93.7
		l12.6-15c2.6-3.1,6.3-5.6,9.7-2.7c1.1,0.9,1.5,1.2,2.8,3.6c0.3,0.8,0.5,2.4,0,3.9c3-1.9,6.2-1.3,8.3,0.8c3.2,3.1,2.7,6.7-0.3,10.3
		l-13.3,15.8L64.5,93.7z M144,206.7c-34.6,0-62.7-28.1-62.7-62.7c0-34.6,28.1-62.7,62.7-62.7c34.6,0,62.7,28.1,62.7,62.7
		C206.7,178.6,178.6,206.7,144,206.7z M202.4,110.9l-4.7-5.8l9.3-13.7l-0.1-0.1l-15.3,6.3l-4.7-5.8l16.2-20.8l4,4.9L197,89.2
		l15.5-6.7l4.3,5.3h0l-9.7,13.8l15.1-7.2l4,4.9L202.4,110.9z"/>
	<path d="M144,202.7c32.4,0,58.7-26.3,58.7-58.7H144V202.7z"/>
	<path d="M85.3,144H144V85.3C111.6,85.3,85.3,111.6,85.3,144z"/>
	<polygon points="144.5,69.7 144.5,69.6 144.4,69.7 	"/>
	<path d="M93.2,92.9c1-1.2,0.9-3.2-0.6-4.5c-1.4-1.1-3.4-0.8-4.3,0.2l-8,9.5l4.9,4.2L93.2,92.9z"/>
	<path d="M84,82.5c-1.3-1.1-3.3-1.1-4.1-0.1l-7.6,9l4.7,3.9l7.5-8.9C85.4,85.3,85.4,83.6,84,82.5z"/>
</g>
</svg>
