<?xml version="1.0" encoding="utf-8"?>
<!-- Generator: Adobe Illustrator 26.0.1, SVG Export Plug-In . SVG Version: 6.00 Build 0)  -->
<svg version="1.1" id="Layer_1" xmlns="http://www.w3.org/2000/svg" xmlns:xlink="http://www.w3.org/1999/xlink" x="0px" y="0px"
	 viewBox="0 0 288 288" style="enable-background:new 0 0 288 288;" xml:space="preserve">
<g>
	<path d="M265.5,145.7c-3.5,0.8-7.1,1.3-10.6,1.4c-0.1,0-56,2-57.7,2.1c-2.7,0.1-5.3,0.9-7.5,2.4c-4,2.5-8.4,4.4-13,5.5
		c-5.7,1.3-11.5,2-17.3,2.3c-0.4,0,2.1-0.2,2.1-0.2c2.1-0.1,4.1-0.4,6.1-0.8c5.4-0.7,10.6-2.2,15.5-4.4l0.5-0.3l0,0
		c2.5,0,2.3-0.7,2.3-0.7l-3,0.1c-2.2,0.1-4.5,0.1-5.1,0.1c-0.1-0.4-5.2-0.7-5.2-0.7h13.1c0.9-0.5,1.8-1.1,2.8-1.7l0,0
		c2.7,0,2.5-0.7,2.5-0.7c-2.9,0.1-8.2,0.1-9.2,0.1c-0.1-0.4-5.8-0.7-5.8-0.7h14.7c2.5-1,5.1-1.4,7.7-1.4l56.6-1.2
		c3.5-0.1,7-0.6,10.4-1.3l0.9-0.2c0-0.2-0.6-0.3-1.8-0.3l-16.3-0.2c-24.9-0.2-71.1-0.6-73.2-0.6h-0.5c-2.4-0.1-4.9,0.2-7.2,1
		l-0.9,0.3c-2.6,0.9-5.3,1.5-8.1,1.8c-2.9,0.1-13.9,0.1-14.4,0.1s-11.5,0-14.3-0.1c-2.8-0.2-5.5-0.8-8.1-1.8l-0.9-0.3
		c-2.3-0.8-4.7-1.1-7.2-1H113c-2.1,0-48.4,0.2-73.2,0.4L23.5,145c-1.1,0-1.8,0.1-1.8,0.3l0.9,0.2c3.4,0.7,6.9,1.1,10.4,1.3
		c6.6,0.1,55.4,1.3,56.5,1.4c2.6-0.1,5.3,0.4,7.7,1.4h15.2c0,0-6.2,0.4-6.2,0.7h-0.4c-1.5,0-6.2,0-8.8-0.1c0,0-0.2,0.7,2.5,0.7l0,0
		c0.9,0.6,1.9,1.2,2.8,1.7h13.1c0,0-5.2,0.3-5.2,0.7l0,0c-0.6,0-2.8-0.1-5-0.1l-3-0.1c0,0-0.2,0.7,2.3,0.7l0.4,0.3
		c4.9,2.2,10.1,3.7,15.5,4.4c2,0.4,4.1,0.7,6.1,0.8c0,0,2.5,0.2,2.1,0.2c-5.8-0.2-11.6-1-17.3-2.3c-4.6-1.1-9-3-13-5.5
		c-2.2-1.5-4.8-2.3-7.5-2.4c-1.7-0.1-57.5-2.3-57.7-2.3c-3.6-0.1-7.1-0.6-10.6-1.4l-0.8-0.3c0,0.1,0.4,0.6,0.7,0.9
		c1.7,1.5,8.2,4.7,12.1,5.6c6.6,1.6,47.3,6.8,54.5,7.6l4,0.4c10.9,1.2,24.7,2.7,31.7,3.4c1.3,0.2,2.7,0.2,4-0.2
		c4.9-1.8,10.1-2.7,15.3-2.6c5.2,0,10.4,0.9,15.3,2.6c1.3,0.4,2.6,0.5,3.9,0.2c7-0.7,20.8-2.2,31.6-3.4l4.1-0.4
		c7.2-0.8,47.9-5.8,54.5-7.4c3.8-0.9,10.3-4.1,12.1-5.6c0.3-0.3,0.7-0.7,0.7-0.9L265.5,145.7z M146.7,155.6h-5.4
		c-8.1,0-16.1-0.1-18.4-0.7c-5.6-1.4-8.1-3.9-8.6-4.7c-0.4-0.8-0.3-0.8,0.4-0.8h58.7c0.7,0,0.7,0.1,0.4,0.8s-3,3.3-8.6,4.7
		C162.8,155.5,154.8,155.6,146.7,155.6z"/>
	<polygon points="142.4,152 141,151.2 139.5,151.2 141.4,152.4 141.4,153.4 142.7,153.4 142.7,152.4 144.5,151.2 143.6,151.2 	"/>
	<polygon points="151.8,151.1 150.5,151.1 150.5,153.4 154.9,153.4 154.9,153 151.8,153 	"/>
	<polygon points="157.4,152.5 160.4,152.5 160.4,152.1 157.4,152.1 157.4,151.6 160.5,151.6 160.5,151.1 156,151.1 156,153.4 
		160.5,153.4 160.5,153 157.4,153 	"/>
	<path d="M131.6,152.1h-2.8v-0.9h-1.3v2.3h1.3v-0.9h2.8v0.9h1.4v-2.3h-1.3L131.6,152.1z"/>
	<path d="M139.2,151.8c0-0.3-0.5-0.6-2-0.6h-3.1v2.3h1.4v-1.9c1.2-0.1,2.3,0.1,2.3,0.3c0,0.2-0.2,0.4-1.6,0.3
		c0.3,0.2,1.7,1.2,1.7,1.2h1.5l-1.7-1C138.7,152.4,139.2,152.1,139.2,151.8z"/>
	<path d="M163.8,152.2c0.3,0.2,1.7,1.2,1.7,1.2h1.5l-1.7-1c0.9-0.1,1.5-0.3,1.5-0.6c0-0.3-0.5-0.6-2-0.6h-3.1v2.3h1.4v-1.9
		c1.2-0.1,2.3,0.1,2.3,0.3C165.4,152.1,165.1,152.2,163.8,152.2z"/>
	<path d="M148.2,152l-1.2-0.1c-0.4,0-0.7-0.1-0.7-0.2c0-0.2,0.2-0.2,1.1-0.2c0.6,0,1.1,0.1,1.7,0.1l0.1-0.4
		c-0.7-0.1-1.4-0.2-2.1-0.2c-0.8,0-2.1,0.1-2.1,0.7s0.4,0.6,1.4,0.7l1,0.1c0.5,0,0.8,0.1,0.8,0.2c0,0.1-0.1,0.3-1.2,0.3
		c-0.6,0-1.3,0-1.9-0.1l-0.1,0.5c0.7,0.1,1.4,0.1,2.1,0.1c1.3,0,2.6-0.2,2.6-0.8C149.5,152.4,149.1,152.1,148.2,152z"/>
	<path d="M124.5,151.5c0.8,0,1.7,0.1,1.9,0.1l-0.1-0.5c-0.2,0-1-0.1-2-0.1c-1.7,0-3.2,0.4-3.2,1.2c0,0.8,1.5,1.2,3.2,1.2
		c0.9,0,1.8-0.1,2-0.1l0.1-0.5c-0.2,0-1,0.1-1.9,0.1s-2.2-0.2-2.2-0.8S123.6,151.5,124.5,151.5z"/>
	<path d="M136.3,134.4v-4.2l0,0V130l0.2-0.2c0,0,3.4-3.3,5.2-5h-1.4l-4.3,3.8l0,0l-0.4,0.4l-0.4-0.4l-2.3-2l0,0l-2.1-1.8h-3.7
		l5.6,5.1l0,0l0.2,0.2v4.4C132.7,134.4,136.3,134.4,136.3,134.4z"/>
	<polygon points="187.3,134.4 187.3,133.2 175.6,133.2 175.6,124.8 172.3,124.8 172.3,134.4 187.3,134.4 187.3,134.4 	"/>
	<polygon points="194.3,134.3 209.6,134.3 209.6,133.2 197.5,133.2 197.5,130.2 209.2,130.2 209.2,128.9 197.5,128.9 197.5,126 
		209.4,126 209.4,124.8 194.3,124.8 194.3,134.3 194.3,134.3 	"/>
	<path d="M95.8,134.4v-9.6h-3.4v3.8l0,0v0.4h-9.3v-2.6l0,0v-1.7h-3.4v9.6h3.4v-3.8l0,0v-0.4h9.3v2.5l0,0v1.7H95.8z"/>
	<path d="M121.2,134.4c-1.1-1-3.3-3.3-4.2-4l0,0l-0.6-0.5l0.8-0.1c2.9-0.3,3.7-1.4,3.7-2.5l0,0c0-0.8-0.5-1.4-1.2-1.7l0,0
		c-1.6-0.7-3.3-1-5-0.9h-9v9.6h3.4v-5.8l0,0v-2.3l0,0v-0.3h2.7c2.2,0,4.1,0,4.9,0.7l0,0c0.3,0.2,0.5,0.6,0.5,0.9l0,0
		c0,0.6-0.4,1.1-1,1.3l0,0c-1.3,0.3-2.7,0.4-4,0.5c1.4,1.4,4.6,4.4,5.2,5L121.2,134.4L121.2,134.4z"/>
	<path d="M154.8,134.6c2,0,4-0.2,6-0.7l0,0c1.6-0.5,2.5-1.3,2.5-2.2l0,0c0-0.7-0.4-1.4-1-1.7l0,0c-1-0.6-2.2-0.9-3.4-1l0,0
		c-1.4-0.2-2.9-0.4-3.9-0.5l0,0c-0.6-0.1-1.3-0.2-1.9-0.3l0,0c-0.5-0.1-0.9-0.5-0.9-1l0,0c0-0.4,0.4-0.8,1-1l0,0c1-0.2,2-0.3,3-0.2
		l0,0c1.8,0,3.7,0.2,5.5,0.5l0,0l0.2-1.2c-2.4-0.3-4.7-0.5-7.1-0.6l0,0c-1.5,0-3.1,0.1-4.6,0.5l0,0c-1.4,0.4-2.3,1.1-2.3,2.1l0,0
		c0,0.7,0.3,1.4,0.9,1.8l0,0c1.1,0.6,2.3,0.9,3.5,1l0,0c0.7,0.1,1.6,0.2,3.5,0.5l0,0c0.7,0.1,1.4,0.2,2.1,0.4l0,0c0.5,0.1,1,0.4,1,1
		l0,0c0,0.5-0.4,0.9-0.8,1l0,0c-1.1,0.4-2.4,0.6-3.6,0.5l0,0c-2.1,0-4.3-0.2-6.4-0.7l0,0l-0.3,1.4
		C150.2,134.4,152.5,134.5,154.8,134.6L154.8,134.6z"/>
	<path d="M57,126c-1.8,0.8-2.8,2-2.8,3.6l0,0c0,1.6,1,2.8,2.8,3.6l0,0c2.2,0.9,4.5,1.3,6.8,1.3l0,0c1.9,0,3.9-0.1,5.8-0.4l0,0
		l0.3-1.3c-1.8,0.2-3.5,0.3-5.3,0.4l0,0c-1.5,0-3-0.3-4.5-0.8l0,0c-1.3-0.5-2.5-1.4-2.5-2.7l0,0c0-1.3,1.1-2.2,2.5-2.7l0,0
		c1.4-0.5,3-0.8,4.5-0.8l0,0c1.8,0,3.5,0.1,5.3,0.4l0,0l-0.3-1.3c-1.9-0.3-3.9-0.4-5.8-0.4l0,0C61.5,124.6,59.2,125.1,57,126z"/>
	<path d="M233.7,134.4c-1.1-1-3.3-3.3-4.2-4l0,0l-0.6-0.5l0.8-0.1c2.9-0.3,3.7-1.4,3.7-2.5l0,0c-0.1-0.7-0.5-1.4-1.2-1.7l0,0
		c-1.6-0.7-3.3-1-5-0.9h-9v9.6h3.4v-5.8l0,0v-2.3l0,0V126h2.7c2.2,0,4.1,0,4.9,0.7l0,0c0.3,0.2,0.5,0.6,0.5,0.9l0,0
		c0,0.6-0.4,1.1-1,1.3l0,0c-1.3,0.3-2.7,0.5-4,0.5c1.4,1.4,4.6,4.4,5.2,5L233.7,134.4L233.7,134.4z"/>
</g>
</svg>
