<?xml version="1.0" encoding="utf-8"?>
<!-- Generator: Adobe Illustrator 26.0.1, SVG Export Plug-In . SVG Version: 6.00 Build 0)  -->
<svg version="1.1" id="Layer_1" xmlns="http://www.w3.org/2000/svg" xmlns:xlink="http://www.w3.org/1999/xlink" x="0px" y="0px"
	 viewBox="0 0 288 288" style="enable-background:new 0 0 288 288;" xml:space="preserve">
<style type="text/css">
	.st0{fill:#231F20;}
</style>
<g>
	<path class="st0" d="M206.3,181.4c0.3,0.3,0.8,0.7,1.7,0.6c1.3-0.2,1.3-2.1,1.3-2.1s0.3-4.4,0.3-8.9c0-5.6-4.4-10.5-4.4-10.5
		s-45.4-50-61.3-50c-15.9,0-61.3,50-61.3,50s-4.4,4.9-4.4,10.5c0,4.4,0.3,8.9,0.3,8.9s0,1.9,1.3,2.1c0.9,0.1,1.4-0.3,1.7-0.6
		c5.1-4.4,45.5-39.2,62.3-39.2C160.8,142.2,201.3,177,206.3,181.4"/>
	<path class="st0" d="M80,136c0.9,0.1,1.4-0.3,1.7-0.6c5.1-4.4,45.5-39.2,62.3-39.2c16.8,0,57.3,34.8,62.3,39.2
		c0.4,0.3,0.8,0.7,1.7,0.6c1.3-0.1,1.3-2.1,1.3-2.1s0.3-4.4,0.3-8.9c0-5.6-4.4-10.5-4.4-10.5s-45.4-50-61.3-50
		c-15.9,0-61.3,50-61.3,50s-4.4,4.9-4.4,10.5c0,4.5,0.3,8.9,0.3,8.9S78.7,135.9,80,136"/>
	<path class="st0" d="M177.7,202.2c-5.5-0.1-11.1,0-11.2,0c-6.7,0-12.2,4.6-12.2,10.4c0,5.8,5.5,10.6,12.2,10.6
		c0.1,0,5.6,0.1,11.2,0c6.8,0,12.3-4.7,12.3-10.6C189.9,206.9,184.5,202.3,177.7,202.2 M173.9,220.2c0,0-2,0.1-3.6,0
		c-3.9,0-8.1-2.9-8.1-7.6c0-4.7,4.1-7.5,8.1-7.5c0,0,2-0.1,3.6,0c4,0,8.1,2.8,8.1,7.5C181.9,217.3,177.8,220.2,173.9,220.2"/>
	<path class="st0" d="M244.4,202.4H227c-0.3,0-0.9,0.1-0.9,0.8v18.9c0,0.5,0.4,0.8,0.7,0.8h7.3v-15.8c0-0.7,0.5-1,1.1-1h8
		c2.2,0,5.5,2,5.5,6.3v9.7c0,0,0,0.8,0.8,0.8h6.9v-10C256.3,207,251.1,202.4,244.4,202.4"/>
	<path class="st0" d="M114.3,202.4H84.4c-0.5,0-0.8,0.4-0.8,0.8v3.2h7.2c2.7,0,4.5,2.3,4.5,4.5v11.2c0,0.4,0.3,0.8,0.8,0.8h7.3
		v-15.3c0-0.6,0.5-1.1,1.1-1.1h10.7v-3.2C115.1,202.8,114.7,202.4,114.3,202.4"/>
	<path class="st0" d="M78.5,202.4H72c-0.4,0-0.8,0.4-0.8,0.8v18.9c0,0.5,0.4,0.8,0.8,0.8h7.2v-19.7
		C79.3,202.8,78.9,202.4,78.5,202.4"/>
	<path class="st0" d="M145,215.4L145,215.4c3.6-0.8,5.9-3.4,5.9-6.4c0-3.2-3.1-6.6-8.1-6.6h-19.3c-2.3,0-4.2,1.8-4.2,4.2v15.5
		c0,0.4,0.3,0.8,0.7,0.8h7.2v-7.3h6.8c6.1,0,8.6,4.4,8.8,7.3h8C150.7,217.6,145,215.4,145,215.4 M139.9,212h-12.6v-4.1
		c0-1.1,0.8-1.9,1.9-1.9h10.7c1.6,0,3,1.4,3,3C142.9,210.7,141.6,212,139.9,212"/>
	<path class="st0" d="M47.8,205c0.4,0,2-0.1,3.5,0c2.9,0,5.7,1.5,7.1,3.9c0,0.1,0.3,0.4,0.7,0.4h7.8c-1.7-4.3-6.6-7.3-11.8-7.3
		c-2.8,0-7.9-0.2-11.2,0c-3.8,0.2-6.2,1.1-8.6,3.2c-2.3,2-3.6,4.7-3.6,7.5c0,5.8,5.2,10.4,12.1,10.7c4.7,0.2,5.2,0.2,11.4,0
		c5.8-0.2,9.8-2.8,11.6-7.3h-7.8c-0.3,0-0.5,0.1-0.7,0.4c-1.4,2.4-4.1,3.9-7,3.9c-1,0-2.4,0-3.6,0c-4.1-0.1-8.1-2.9-8.1-7.7
		C39.7,207.9,43.8,205,47.8,205"/>
	<path class="st0" d="M201.8,218.2v-3.9h16.4v-3.6h-16.4v-3.5c0,0,0-1,1.2-1h18.8v-2.9c0-0.8-0.9-0.8-0.9-0.8h-26.3
		c-0.1,0-0.8,0-0.8,0.8v15.5c0,2.1,1.6,4.2,4.2,4.2h23c0.6,0,0.8-0.6,0.8-0.8v-2.9h-18.9C202.2,219.2,201.8,218.8,201.8,218.2"/>
	<path class="st0" d="M205.9,195c-0.8-0.5-1.7-0.7-2.8-0.7c-1.1,0-2,0.3-2.8,0.7c-0.8,0.5-1.1,1-1.1,1.7c0,0.7,0.4,1.2,1.1,1.7
		c0.8,0.5,1.7,0.7,2.8,0.7c1.1,0,2-0.2,2.7-0.7c0.7-0.4,1.4-1.1,2.2-1.1c0.8,0,1.5,0.6,2.2,1.1c0.7,0.4,1.7,0.7,2.8,0.7
		c1.1,0,2.1-0.3,2.8-0.7c0.8-0.5,1.1-1,1.1-1.7c0-0.7-0.4-1.2-1.2-1.7c-0.8-0.5-1.7-0.7-2.8-0.7c-1.1,0-2.1,0.3-2.8,0.7
		c-0.7,0.5-1.3,1.1-2.2,1.1C207.2,196.1,206.7,195.5,205.9,195"/>
</g>
</svg>
