<?xml version="1.0" encoding="utf-8"?>
<!-- Generator: Adobe Illustrator 26.0.1, SVG Export Plug-In . SVG Version: 6.00 Build 0)  -->
<svg version="1.1" id="Layer_1" xmlns="http://www.w3.org/2000/svg" xmlns:xlink="http://www.w3.org/1999/xlink" x="0px" y="0px"
	 viewBox="0 0 288 288" style="enable-background:new 0 0 288 288;" xml:space="preserve">
<g>
	<path d="M144,103.6c-63.1,0-114.3,18.1-114.3,40.4c0,22.3,51.2,40.4,114.3,40.4c63.1,0,114.3-18.1,114.3-40.4
		C258.3,121.7,207.1,103.6,144,103.6z M249,142c0.1,4.8-2.7,8.7-5.5,12.5c-4.2,5.2-10.2,8.5-16.3,10.6c5.4-2.9,11.9-6.4,15.4-11.8
		c2.3-3.4,4.5-6.8,4.4-11.1C247.7,142,248.4,142.1,249,142z M143.9,108c56,0,101.4,15.7,101.4,35c0,19.3-45.4,35-101.4,35
		c-56,0-101.4-15.7-101.4-35C42.5,123.7,87.9,108,143.9,108z M40.6,144.6c1,6.2,5.7,11.6,11.7,15.5l4.3,2.8
		C48.9,159.9,41,153.3,39,146l-0.2-1.7L40.6,144.6z M250.3,154c-5,5.3-11.2,8.7-17.5,11.5c-18.6,8.2-39.2,12-60.3,14.7
		c-33.8,4.1-68.5,0.4-98.9-7.7c-13.6-3.8-27.1-8.9-36.7-20c-2-2.8-4.4-5.6-4.2-9.2l0.4-1.2c0.1,0.5,0.4,1.1,1,1.4
		c1.1,0.5,2.8,0,3.5,1.1c0.5,1.3,0.1,2.9,1,4.1c2.7,5.3,8.2,10.9,14.2,13.6c16,8.6,34.2,12.5,52.9,15.5c26.9,4.2,57.9,3.5,84.3-1.3
		c15.2-2.7,30.1-6,43.5-12.6c6.3-2.9,11.6-8.6,14.8-14.1c1.3-2.3,2.3-4.8,2.3-7.6c0.1-0.3,0.2-0.8,0.7-0.8c1.1-0.4,3,0.5,3.3-1.1
		l0.2-0.6C257.5,144.9,254.1,150.1,250.3,154z"/>
	<path d="M254.7,139.7l-0.2,0.6c-0.3,1.6-2.2,0.7-3.3,1.1c-0.5,0-0.6,0.5-0.7,0.8c0,2.9-1,5.3-2.3,7.6c-3.2,5.5-8.4,11.2-14.8,14.1
		c-13.4,6.6-28.3,9.9-43.5,12.6c-26.4,4.8-57.4,5.5-84.3,1.3c-18.7-3-36.9-6.9-52.9-15.5c-6-2.8-11.5-8.3-14.2-13.6
		c-0.9-1.2-0.5-2.8-1-4.1c-0.7-1.1-2.4-0.6-3.5-1.1c-0.6-0.3-0.8-0.9-1-1.4l-0.4,1.2c-0.1,3.6,2.2,6.4,4.2,9.2
		c9.6,11.1,23.2,16.2,36.7,20c30.4,8.1,65.2,11.7,98.9,7.7c21.1-2.7,41.7-6.5,60.3-14.7c6.3-2.8,12.4-6.3,17.5-11.5
		C254.1,150.1,257.5,144.9,254.7,139.7z"/>
	<path d="M56.5,162.8l-4.3-2.8c-6-3.9-10.7-9.2-11.7-15.5l-1.8-0.3L39,146C41,153.3,48.9,159.9,56.5,162.8z"/>
	<path d="M227.3,165c6.1-2.1,12.1-5.4,16.3-10.6c2.8-3.8,5.6-7.6,5.5-12.5c-0.6,0.1-1.3,0.1-1.9,0.2c0.1,4.3-2.1,7.7-4.4,11.1
		C239.2,158.7,232.7,162.1,227.3,165z"/>
	<path d="M143.9,178c56,0,101.4-15.7,101.4-35c0-19.3-45.4-35-101.4-35c-56,0-101.4,15.7-101.4,35C42.5,162.3,87.9,178,143.9,178z
		 M143.8,111.1c54.2,0,98.2,14.4,98.2,32.1c0,17.7-44,32.1-98.2,32.1s-98.2-14.4-98.2-32.1C45.6,125.5,89.5,111.1,143.8,111.1z"/>
	<path d="M143.8,172.6c52.6,0,95.2-13.2,95.2-29.4c0-16.2-42.6-29.4-95.2-29.4c-52.6,0-95.2,13.2-95.2,29.4
		C48.6,159.4,91.2,172.6,143.8,172.6z M184.4,141.3c1.6,0.2,3.1,0.7,3.9,2.1c0.3,0.6,0.5,1.1,0.7,1.8l9.9-13.7l6.1,0.4l-16.7,23.5
		c-0.3,0.6-0.7,1.4-0.3,2.1c0.2,0.3,0.5,0.6,0.9,0.6c1.6,0.1,2.7-0.7,4-1.5c2.2-1.6,4.2-3.6,6.2-5.4c0.4-0.3,0.8-0.6,1.3-0.5
		c0.6,0.2,1.3,0.6,1.5,1.2l-0.1,0.3c-4,3.9-8.2,9.2-14.3,9.7c-1.6,0.1-3-0.5-4-1.6c-0.7-0.8-0.8-1.8-0.7-2.8
		c-3.1,2.5-7.1,5.1-11.4,3.4c-2.6-1.4-3.4-3.9-3.2-6.5c0.1-0.8,0.5-1.6,0.8-2.4c-2.6,1.5-5.4,3.8-8.8,2.5c-1.6-0.7-2.5-2.2-2.6-3.7
		c-0.1-0.5,0-1,0-1.5l-8.3,11.7l-5.4,0c-0.1-0.1-0.3-0.2-0.3-0.3l0.1-0.5l8.7-12.3c0.5-1,1.3-2.2,0.6-3.3c-0.7-0.5-1.6-0.1-2.3,0.2
		c-3.7,1.8-6.5,5.3-9,8.2c-3.4,4.2-8.1,9.4-14.6,8.3c-3.1-0.3-5.2-3.1-5.8-5.5c0-0.1,0-0.2-0.1-0.2c-1.5,1.1-2.6,2.7-4.2,3.5
		c-0.3,0.1-0.5,0.1-0.8,0c-0.7-0.5-0.8-1.2-1-1.8c0.3-0.8,1.3-1.2,1.9-1.8c4.5-4.3,5.8-10.7,12.4-13.3c1.6-0.7,3.4-1.1,5.3-1.1
		c0.5,0,1,0.4,1.2,0.9c0.2,0.3,0.4,0.8,0.2,1.2c-0.7,0.6-1.6,0.6-2.4,0.9c-3.7,1.5-7.3,4.9-7.7,8.6c-0.1,1.5,0.4,3.1,2,3.9
		c2,0.9,4.3,0.1,5.9-1.1c2.9-2.4,4.3-5.3,4.7-8.6c0.1-1.4-0.4-2.5-0.8-3.7c0-0.8,0.9-1.4,1.6-1.7c0.5-0.2,1.4-0.4,2-0.1
		c1.3,1.2,1.5,2.7,1.6,4.3c0,0.5,0,0.9-0.1,1.3c3.6-2.7,6.6-7.6,11.8-6.9c1.3,0.2,2.5,1.2,2.8,2.4c0.2,0.8,0.1,1.7,0,2.5
		c2.1-2.4,4.8-4.8,8.4-4.3c1.4,0.2,2.8,1.3,3.1,2.5c0.4,1.5-0.1,2.9-1.2,3.9c-0.8,0.6-1.7,1-2.7,0.9c-0.9-0.1-1.7-0.5-2.2-1.2
		c-0.5-0.7-0.5-1.8,0-2.4c-1.2,0.1-2,1.4-2.3,2.3c-0.4,1.2-1,2.9,0.2,4c0.8,1,2.4,0.7,3.5,0.5C171.5,149,175.8,140.4,184.4,141.3z
		 M88.3,142.3c1.6-1,3.4-1.6,5.4-1.4c0.4,0.1,0.9,0.4,1,0.8c0.1,0.3,0.1,0.7-0.1,1c-1.8,1.5-4.2,2.4-5.4,4.4c-1,1.5-1.3,4-0.1,5.5
		c1.9,2.3,5.5,2.7,8.4,1.8c7.8-2.4,13.3-9.8,18.2-15.5c-2.7,0.3-5.5,0.7-7.6,2.3c-0.2,0.1-0.6,0.2-0.8,0c-0.3-0.2-0.4-0.5-0.4-0.8
		c0.2-1.5,2-2.1,3.3-2.6c2.4-0.8,5.1-1.1,7.7-1.5c3.7-4.9,9.1-9.9,14.9-12.7c-9.4-2-23.2-4.8-30.2,3.3c-0.9,1.2-1.5,2.6-1,4.1
		c0.6,1.1,1.8,1.7,3.1,1.8c3.6,0.1,6.1-2.7,8.5-5c0.3-0.2,0.6-0.3,0.9-0.2c0.3,0.1,0.4,0.4,0.5,0.5c0.1,2.3-1.6,4-3.1,5.7
		c-3,3-7.2,5-11.7,3.7c-2.4-0.7-4.2-3-4.4-5.2c-0.5-4.4,2.6-8.2,6.8-10.2c6.4-3.3,14.6-3.7,22.4-2.9l5.6,0.6l0,0l15.6,2.1
		c8,1.1,17.3,1.3,25-0.5c0.9,0,2-0.4,2.7,0.3c0.4,0.3,0.4,0.7,0.3,1.1c-0.4,1.6-2.3,2.6-3.7,3.4c-6.8,3.5-16.4,2-23.7,0.5l-11.8-2.8
		h0c-0.1,0.5,0.1,1-0.2,1.4c-4.6,2.5-8.8,6.5-11.5,10.6c2.6-0.1,5.3-0.2,7.8-0.7c-0.4-1.9,0.4-3.7,2.1-4.9c0.9-0.5,2.1-0.9,3.3-0.6
		c0.8,0.3,1.5,1,1.7,1.7c0.4,1.5-0.3,2.8-1.4,3.8c-0.8,0.6-1.7,1.1-2.6,1.4l0,0.1c0.7,0.5,1.5,0.9,2,1.5c0,0.2,0,0.4-0.2,0.6
		c-0.3,0.3-0.7,0.3-1,0.3c-1.3-0.1-2.1-1.3-3.1-2.1c-3.3,0.5-6.6,0.7-10,1l-2.1,2.7l-5.8,8.1c-4.6,6.1-11.4,13.2-20.5,12.2
		c-4.3-0.4-8.8-3.2-10-7C81.5,149.6,84.2,145.2,88.3,142.3z"/>
	<path d="M135.9,132.7c0.1-0.4,0.2-1-0.2-1.3c-0.3-0.3-0.9-0.3-1.3-0.1c-1.5,0.7-1.9,2.3-1.6,3.8C134,134.6,135.5,134,135.9,132.7z"
		/>
	<path d="M175.1,157c0.7,0.5,2,0.4,2.8,0.2c3.7-1.2,5.9-4.8,8-7.5l-1.1-0.4c0.6-1.2,1.3-2.6,0.6-3.9l0,0c-0.5-0.6-1.3-1-2.2-0.9
		c-4.7,0.7-8.1,5.3-9.2,9.1C173.8,154.8,173.9,156.2,175.1,157z"/>
</g>
</svg>
