<?xml version="1.0" encoding="utf-8"?>
<!-- Generator: Adobe Illustrator 26.0.1, SVG Export Plug-In . SVG Version: 6.00 Build 0)  -->
<svg version="1.1" id="Layer_1" xmlns="http://www.w3.org/2000/svg" xmlns:xlink="http://www.w3.org/1999/xlink" x="0px" y="0px"
	 viewBox="0 0 288 288" style="enable-background:new 0 0 288 288;" xml:space="preserve">
<style type="text/css">
	.st0{fill:#231F20;}
</style>
<g>
	<path class="st0" d="M62.4,106.9c-4.4,6.7-5.8,13.8-3.4,21.6c2,6.2,5.9,11.1,10.8,15.3c6.5,5.6,14,9.6,21.9,12.7
		c15.4,6,31.5,8.6,47.9,9.2c8,0.3,16,0,23.9-0.9c8.2-0.9,16.4-2.3,24.3-4.6c10.4-2.9,20.3-6.8,29.2-12.9c5.5-3.8,10.4-8.2,13.8-14
		c3.4-5.6,4.7-11.7,3.3-18.2c-1.2-5.4-4-9.8-7.6-13.8c-5.6-6-12.4-10.2-19.7-13.7c-8.8-4.2-18-6.9-27.4-8.8
		c-6.6-1.3-13.3-2.2-20-2.6c-1.5-0.1-3-0.3-4.6-0.4h-14.7c-0.2,0.1-0.5,0.2-0.7,0.2c-2.5,0.2-5,0.3-7.5,0.5
		c-7.9,0.7-15.8,2-23.5,3.9c-10.6,2.7-20.9,6.4-30.2,12.1C72,96.2,66.5,100.7,62.4,106.9 M165,137.9c-1.2,7.3-4.7,13.3-10.2,18.2
		c-2.1,1.8-4.6,2.5-7.2,2.7c-1.9,0.2-3.7,0.2-4.9,0.3c-6.8-0.1-12.8-0.8-18.8-1.6c-6.2-0.8-12.4-1.9-18.4-3.6
		c-2.1-0.6-4.1-1.3-6.1-2c-1.7-0.7-1.7-1.7-0.3-2.8c13.1-10.4,27.9-17,44-20.8c4.2-1,8.5-1.8,12.8-1.4c3.3,0.2,6.2,1.2,8,4.2
		C165.2,133.2,165.4,135.6,165,137.9 M206.1,103.9c0.7-1.4,1.4-2.8,2.1-4.2c0.9-1.8,1.9-2.2,3.6-1.3c8.4,4.1,13.6,10.7,15.1,20.1
		c0.1,0.6,0,1.4,0,2c0.1,4.8-1.7,8.9-4.5,12.6c-3.8,5-8.8,8.6-14.3,11.6c-9.3,5.2-19.3,8.6-29.8,10.4c-0.4,0.1-1.3-0.1-1.3-0.3
		c-0.2-0.5-0.1-1.2,0.2-1.6c1.3-1.9,2.8-3.8,4.2-5.7c5.1-6.8,9.5-14,13.5-21.5C198.8,118.8,202.4,111.3,206.1,103.9 M135.8,87
		c3.2-3.4,7.2-4.8,11.9-5c11.7-0.4,23.1,1.1,34.4,3.9c3.1,0.7,6.1,1.7,9.1,2.7c1,0.3,1.9,0.8,2.7,1.3c1,0.7,1.1,1.7,0.2,2.6
		c-0.6,0.6-1.2,1.2-2,1.6c-11.8,7.3-24.3,13.4-37.5,17.8c-5,1.6-10.1,2.9-15.4,3.2c-2.3,0.1-4.5-0.1-6.7-1.1
		c-3.4-1.6-4.5-4.4-4.4-8.7C128.6,99,130.7,92.4,135.8,87 M110.3,86.5c1.8-0.5,3.7-0.5,5.5-0.5c1.6,0,1.9,0.8,1,2
		c-2.6,3.4-5.2,6.7-7.8,10.1c-9.1,12.4-17,25.4-22.2,39.8c-0.5,1.3-1.1,2.6-1.9,3.8c-1,1.7-2.2,2-4,1.3c-2.2-0.8-4-2.3-5.7-3.8
		c-3.7-3.6-7.1-7.5-8.8-12.5c-0.7-1.9-0.9-4-1.4-6.1c0.1,0,0.2-0.1,0.3-0.1c0.1-5.1,2.2-9.3,5.4-13.1c3.7-4.4,8.3-7.7,13.2-10.5
		C92.2,92.2,101.1,89,110.3,86.5"/>
	<path class="st0" d="M203.8,178.7c-0.6-0.1-1.3-0.1-1.9-0.1h-24.6c-0.3,0-0.7,0.1-1.1,0.1v1.3v31.2c0,0.4,0,0.8-0.1,1.3H204
		c0.4-0.1,0.7-0.3,1.1-0.4c2.1-0.7,3.4-2.2,3.7-4.4c0.2-0.8,0.2-1.7,0.2-2.5c0-4.1,0-8.2,0-12.3c0-2.4,0.1-4.9,0-7.3
		C208.9,181.3,207.3,179.4,203.8,178.7 M199.1,201.1c-0.1,2.4-0.8,3.1-3.2,3.1h-9.8v-17.6c3.5,0,7,0,10.5,0c1.5,0,2.1,0.8,2.3,2.2
		c0.1,0.5,0.2,1,0.2,1.4c0,3.4,0,6.9,0,10.3C199.1,200.8,199.1,200.9,199.1,201.1"/>
	<path class="st0" d="M246,179.7v-1.2c-0.5,0-0.7-0.1-1-0.1c-7.8,0-15.6,0.1-23.4,0.1c-0.3,0-0.6,0.1-1,0.1c-4.1,0.2-7,3-7,7.1
		c-0.1,8.9,0,17.8,0,26.7h9.6V205h13v7.4h9.8c0-0.4,0-0.8,0-1.2C246,200.7,246,190.2,246,179.7 M236.2,196.4h-13
		c0-2.5-0.1-4.9,0-7.4c0-1.3,0.9-2.2,2.2-2.2c2.5-0.2,5.2-0.1,7.7-0.2c1,0,2,0,3,0V196.4z"/>
	<path class="st0" d="M133.2,178.5c-2.7,0-5.4,0-8,0c-0.9,0-1.2,0.3-1.1,1.2c0,7.3,0,14.8,0,22.1c0,1.9-0.6,2.4-2.4,2.5h-9.3h-1.1
		v-25.6h-10v1.4c0,6.5,0,13,0,19.5c0,4.3,0,8.6,0,13h28.1c0.1,0,0.2-0.1,0.3-0.2c2.8-0.5,4.1-2.2,4.5-4.8c0.1-0.8,0.2-1.6,0.2-2.5
		c0-8.4,0-16.8,0-25.2v-1.2C133.9,178.5,133.5,178.5,133.2,178.5"/>
	<path class="st0" d="M171.7,192.3c0-2.6,0-5.3-0.2-7.9c-0.2-2.8-1.7-4.7-4.2-5.4c-1.3-0.3-2.7-0.6-4-0.6c-8-0.1-15.9-0.1-23.9-0.1
		c-0.3,0-0.5,0-0.9,0.1v1.1v8.5c0,8.1,0,16.2,0,24.3h10c0-8.5,0-16.9,0-25.4c0-0.1,0-0.2,0.1-0.3c0.2,0,0.4-0.1,0.5-0.1
		c3.3,0,6.7,0,10,0c1.6,0,2.2,0.7,2.2,2.2c0,7.7,0,15.4,0,23.1c0,0.2,0,0.3-0.1,0.5h10.4c0-0.2-0.1-0.4-0.1-0.6
		C171.7,205.3,171.7,198.8,171.7,192.3"/>
	<path class="st0" d="M51.1,178.5c-0.7,0-0.6,0.5-0.6,0.9v9.3v1.9H37.6v-12.1h-1.2c-2.8,0-5.6,0-8.4-0.1v34h9.6v-13.3h13v13.3h10
		c0-0.1,0-0.2,0-0.3v-32.9c0-0.2-0.1-0.5-0.1-0.8C57.4,178.5,54.2,178.5,51.1,178.5"/>
	<path class="st0" d="M90.3,178.5c-0.3,0-0.7,0.4-0.9,0.7c-2.5,3.4-4.9,6.9-7.4,10.4c-0.2,0.3-0.4,0.5-0.6,0.9
		c-0.3-0.4-0.4-0.6-0.6-0.9c-2.2-3.4-4.5-6.8-6.7-10.3c-0.3-0.5-0.6-0.7-1.2-0.7c-3.1,0-6.1,0-9.2-0.1h-1.3c0.4,0.5,0.5,0.8,0.7,1.1
		c3.6,5.5,7.2,11,11,16.4c1.6,2.2,2.3,4.5,2.2,7.3c-0.2,3.1-0.1,6.1-0.1,9.2h10c0-4.1,0-8.3,0-12.5c0-0.5,0.2-1.1,0.5-1.5
		c4.4-6.3,8.7-12.6,13.1-19c0.2-0.2,0.3-0.5,0.5-0.8c-0.2-0.1-0.3-0.1-0.4-0.1C96.7,178.5,93.5,178.4,90.3,178.5"/>
	<path class="st0" d="M250.6,179.7c0.1,10.5,0,21,0,31.4c0,0.4-0.1,0.8-0.1,1.3h9.4v-33.8c-2.7-0.1-5.4-0.1-8.1-0.2
		C250.8,178.4,250.6,178.8,250.6,179.7"/>
</g>
</svg>
