<?xml version="1.0" encoding="utf-8"?>
<!-- Generator: Adobe Illustrator 26.0.1, SVG Export Plug-In . SVG Version: 6.00 Build 0)  -->
<svg version="1.1" id="Layer_1" xmlns="http://www.w3.org/2000/svg" xmlns:xlink="http://www.w3.org/1999/xlink" x="0px" y="0px"
	 viewBox="0 0 288 288" style="enable-background:new 0 0 288 288;" xml:space="preserve">
<style type="text/css">
	.st0{fill:#231F20;}
</style>
<g>
	<path class="st0" d="M71.5,94.7c1.1,0,2.3-0.4,3.1-0.8c0.6-0.3,1-0.5,0.9-0.5c-0.7,0-2,0-2.4,0c-1.9,0-3,1.1-3,1.2
		c0,0.1,0.2,0.1,0.7,0.1C71,94.7,71.2,94.7,71.5,94.7"/>
	<path class="st0" d="M50.5,111.6c0.4,0.7,0.7,1.6,1.2,2.1c0.7,0.8,2.1,2.2,4,1.9c0.8-0.1,0.9-0.4,0.9-0.4c1,1,2.5,0.9,2.5,0.9
		c-0.2-0.6-0.9-1.8-1-2.6c-0.1-0.8,0.1-1.6,0.1-1.6c0.3-0.9,0.8-2.1,1.4-2.6c0.5-0.5,1.9-1.1,3-0.4c0.9,0.6,1.9,2.6,1,5.5
		c-0.1,0.2-1,2.2-2,2.5c0,0-0.1,0-0.3,0c-0.7,0-2-0.7-2-0.7s0,0.2,0.1,0.9c0.1,0.4,0.3,0.9,0.4,1.2c0,0-0.3,0.4-0.4,0.7
		c-0.2,0.3-0.5,1.3,0.1,1.7c0,0,2.3,1.5,4.5,1.7c1.5,0.1,2.1-0.9,2.1-0.9c1.1-1.5,2-2.8,3.1-3.9c3.2-2.9,7.7-3.7,7.7-3.7
		c0.3,0,5.2-1.4,13.6,5.3c-2.4,0.2-5.3,0.8-7.4,1.1c-6.2,1.1-10.2,6.9-11.3,9.3c-3,6.2,3.1,8.3,3.1,8.3c0-0.1,5.9-0.5,8.7-6.6
		c0,0,1-2.8,3.7-1.9c1.8,0.6,17.6,6.1,21.1,7c0,0,10.6,2.7,14.5-2.1c6.3,2.1,12.3,3.1,27.9,1.1c2.7-0.4,4.8-0.3,4.8-0.3
		c3.7,0.3,7,2.7,8,4.3c4.1,6.5,9.3,19.5,27.4,18l8.2-0.7c5-0.3,9-0.5,13.2,1.7c1.8,0.9,2.8,1.3,5.8,4.2c4.2,4,8,8.2,13.1,5.9
		c1.8-0.8,3.8-4.1,3.8-4.1c-0.2-1.5-0.8-2.9-2.5-4.1c4.6,1.1,15.1,1.8,19.1-5.3c1-1.6,1.2-3.1,0.8-4c-1.1-2.5-4.2-1.7-4.2-1.7
		c-1.5,0.3-3.1,2-5.5,2.7c-5.3,1.5-9.5-0.3-9.5-0.3c-8.1-3.5-34.2-18.4-47.5-24.9c0,0-15.4-7.1-37.8-16c0,0-44-18.7-73.3-17.2
		c0,0-15.6,0.4-20.6,7.3c0,0-0.8,0.9-0.4,2c0,0,0.1,0.3-0.1,0.5c0,0-2.6,2.4-4,4.5c-0.5,0.7-0.9,2,0,2.9
		C49.9,110.9,50.3,111.3,50.5,111.6 M52,109.2c1.6-3.6,4.5-4.1,4.9-4.1c0.4,0,1.8-0.2,1.8-0.2c3.8-0.6,5.6-4.6,5.6-4.6
		c-2.5,0-3.8,0.1-3.8,0.1c-2.5,0.4-3.3,3.4-3.3,3.4c-2.1,0.5-2.1-1.3-1.7-1.9c0.3-0.5,1.6-2.7,9.7-4.6c0,0,4-1.2,12.6-0.8l-0.4,0.6
		c-0.8,1.4-3.8,4.4-8.8,3.3c0,0,0.1,2.2,5.4,3c0,0,4.9,0.9,13.1,7.5c0,0-4-7.8-10.7-9.9c0,0-0.8-0.2-0.4-0.7c0,0,4.1-3.8,9.5-4
		c0,0,18.1-1.7,28.1,12c0,0-3-5.8-5.3-8.4c0,0,10.5,3,26.6,8.6c0,0,11,3.9,18,6.6c9.5,3.7,33.3,13,48.5,21.2
		c2.7,1.5,30.1,15.7,30.1,15.7c7.6,3.4,12.9,1.4,12.9,1.4c1.7-0.7,4.8-3.1,6.2-1.7c0.7,0.7,0.8,1.6,0.5,2.6
		c-0.4,1.3-2.4,3.2-4.7,4.2c-2.5,1.1-7.7,1.4-10.7,0.9c0,0-5.8-0.6-10.9-5.9c-1.6-1.7-3.6-3.6-5.4-5.5c-0.8-0.8-2.8-2.8-6.1-3.2
		c-3.4-0.5-11.8-0.7-14.9-1.7c-2.1-0.7-4.7-2.1-8-7.1c-1.6-2.4-2.8-3-5-4.4c0,0,1.7,1.4,2.7,3c1.4,2.5,2.1,4.3,2.9,5.6
		c0.7,1.3,1.6,2.5,2.9,3.5c1.6,1.3,2.6,1.5,4.3,1.8c1.7,0.3,7.3,0.2,12.1,0.2c4.7-0.1,6.8,1.5,8.4,2.8c1.4,1.2,3.9,4.7,5.4,6.2
		c1.8,1.8,3.1,3.6,6.7,5.4c1.2,0.6,3.3,2.1,3.2,3.6c-1.6,1.6-3.6,2-8.4,0.8c0.3,0.3,2.8,2.9,7.1,1.7c-1.3,1.1-2.6,1.5-3.9,1.5
		c-4.5-0.2-8.9-5.7-11.3-7.8c-1.9-1.5-2.1-1.9-5.3-4.1c-4.8-3.3-15.6-2.4-15.6-2.4l-8,0.4c-15.5,1.2-22-12.5-23.7-15.4
		c-0.6-1-1.1-1.8-1.6-2.4c-0.8-1-5-6.5-9.3-8.3c0,0,4.2,3.6,4,6c0,0-1.8-0.8-6.5-0.1c-20.4,2.9-27.3-2.2-27.3-2.2
		c0.9-4.1-1.9-8.3-1.9-8.3c1.6,0.5,11.6,3.9,21.1,1.9c0,0-15.5,0.1-26.4-8.5c0,0,6.7,8.4,5.1,14c0,0-1.1,5.9-12.9,3.5
		c-1.3-0.2-2.7-0.7-20.4-5.6c-4.2-1.2-5.6,0.7-6.3,1.9c0,1.7-2.1,3.8-3.1,4.4c-5.5-1-3.3-6-3.3-6c-3.4,4.9,0.1,7.1,1.3,7.2
		c-0.7,0.4-1.3,0.6-1.9,0.8c0,0-4.5-2.6-2-7c3.5-6.1,7-8,13.5-8.6c2.8-0.3,5.2-0.5,7-0.2c4.7,0.6,7.7,3.3,14.7,4
		c-14.9-4.4-15-13-15-13.2c0,0,0,0,0,0c-0.8,2.8-0.4,5.2,0.4,7.3c-0.2-0.1-3.5-2.2-4.7-3c-5.4-3.3-9.6-3.8-9.6-3.8
		c-1.8-0.2-2.6-2.4-2.6-2.4c0-0.1-0.1-0.2-0.2-0.3c-2.5-4.2-5-4.3-5-4.3c1.4,1.8,1.4,4.5,1.4,4.5c0.7,5.2-5.2,6.9-5.2,6.9
		c-3.6,4.6-3.5,4.7-4.3,4.8c-0.8,0.1-2.6-0.8-2.6-0.8c-0.3-0.4,0.1-0.9,0.1-0.9c0.7-0.5,1.2-1.1,1.2-1.1c3.9-3.9,4.3-5.9,3.8-8.4
		c-1-5.1-4.6-4.5-4.6-4.5c-1.7,0.1-2.5,1.6-2.5,1.6c-0.6,0.9-1.9,3.8-1.9,3.8c-0.8,1.7-1.6,2.1-2,2.2c-0.2,0-0.5,0-0.6,0
		c-1.3,0-2.2-1.2-2.2-1.2c-0.1-0.1-0.1-0.1-0.2-0.2C51.2,110.8,52,109.2,52,109.2 M57.9,103.8c0,0,0.1-0.5,0.2-0.6
		c0.1-0.1,0.5-1.3,1.6-1.5c0,0,0.6,0,1.6,0c0,0-0.5,1.6-2.4,1.9C58.9,103.6,58.2,103.8,57.9,103.8"/>
	<path class="st0" d="M54.2,190.7c1.4-1.4,2.1-3.2,2.1-6.1v-9.1h-7v8.5c0,2.5-0.6,4.2-1.8,5.4c-1.6,1.6-4.3,2.2-8.2,2.2H26.5v2.5h14
		C47.1,194.1,51.8,193.2,54.2,190.7"/>
	<path class="st0" d="M209.1,190.1l3.4,4h7.8l-16.2-18.6h-6.9l-16.2,18.6h4l3.4-4H209.1z M198.8,178.2l8.2,9.5h-16.4L198.8,178.2z"
		/>
	<path class="st0" d="M91,194.1h7.8l-16.2-18.6h-6.9l-16.2,18.6h4l3.4-3.9h20.6L91,194.1z M69,187.7l8.2-9.5l8.2,9.5H69z"/>
	<path class="st0" d="M257.1,186.1c1.8-0.9,2.6-2.7,2.6-4.6c0-2.5-1.1-4.1-3.1-5c-1.8-0.8-4.1-1.1-8.5-1.1h-21.5v18.6h6.9v-6.5h9.1
		l10.4,6.5h8.5l-10.9-6.6C253.2,187.4,255.4,187,257.1,186.1 M233.5,185.3v-7.5h13.7c2.6,0,3.8,0.2,4.6,0.8c0.8,0.6,1,1.4,1,2.8v0.4
		c0,1.2-0.3,2.2-1.2,2.8c-0.9,0.6-2.1,0.7-4.3,0.7H233.5z"/>
	<path class="st0" d="M143.6,175.4v9.3c0,2.4,0.2,4.3,1.5,5.9c2,2.6,5.6,4.1,15.7,4.1h0.1c10.1,0,13.7-1.5,15.7-4.1
		c1.2-1.6,1.5-3.5,1.5-5.9v-9.3h-6.9v9c0,2.3-0.3,3.8-1.2,5.1c-1.5,2.1-3.9,2.9-8.8,2.9h-0.6c-4.7,0-7.2-0.8-8.8-2.9
		c-0.9-1.3-1.2-2.7-1.2-5.1v-9H143.6z"/>
	<path class="st0" d="M117.9,177.9h17.3v-2.5h-19.5c-4.7,0-7.6,0.5-10.1,1.9c-2.4,1.3-4.2,3.8-4.2,7.3c0,3.8,1.7,6.5,5.5,8
		c2.2,0.9,5.2,1.3,9,1.3h20.1v-8.6H129v6.1h-11.1c-3.6,0-5.7-0.5-7.2-1.7c-1.5-1.1-2.2-2.8-2.2-5.1c0-2.2,0.7-3.9,2.1-5
		C112.1,178.5,114.1,177.9,117.9,177.9"/>
</g>
</svg>
