<?xml version="1.0" encoding="utf-8"?>
<!-- Generator: Adobe Illustrator 26.0.1, SVG Export Plug-In . SVG Version: 6.00 Build 0)  -->
<svg version="1.1" id="Layer_1" xmlns="http://www.w3.org/2000/svg" xmlns:xlink="http://www.w3.org/1999/xlink" x="0px" y="0px"
	 viewBox="0 0 288 288" style="enable-background:new 0 0 288 288;" xml:space="preserve">
<g id="g2993_2_" transform="matrix(1.25,0,0,-1.25,-1795.1326,711.62505)">
	<g id="g3045_2_" transform="matrix(5.4202527,0,0,5.4202527,2103.3002,397.09971)">
		<path id="path3047_2_" d="M-91.2,10.1c0-1.4,0.3-2.2,1.5-2.2c1.2,0,1.4,1.3,1.4,2.3c0,1-0.2,1.9-1.5,1.9
			C-90.6,12.1-91.1,11.5-91.2,10.1z M-93.5,4.1v9.7h2.4c0,0,0-0.1,0-0.4c0-0.5,0.2-0.3,0.4-0.1c0,0,0.6,0.7,1.8,0.7
			c1.2,0,3.1-0.8,3.1-3.8c0-2.3-1.1-4-3.1-4c-1.1,0-1.7,0.4-1.8,0.6c-0.1,0.2-0.3,0.2-0.3,0c0-0.2,0-2.7,0-2.7H-93.5"/>
	</g>
	<g id="g3049_2_" transform="matrix(5.4202527,0,0,5.4202527,1575.2049,568.90004)">
		<path id="path3051_2_" d="M-14.8-14.7h2.6c0,0,0-5.7,0-6.9c0-1.2-0.5-3.7-4.1-3.7c-3.6,0-4,2.3-4,3.6v1.3h2.5c0,0,0-0.5,0-1.2
			c0-0.8,0.5-1.5,1.5-1.5c1,0,1.5,0.5,1.5,1.4C-14.8-20.8-14.8-14.7-14.8-14.7"/>
	</g>
	<g id="g3053_2_" transform="matrix(5.4202527,0,0,5.4202527,1777.646,423.16029)">
		<path id="path3055_2_" d="M-44.1,6.3c0,0.7-0.4,1.4-1.3,1.4c-0.9,0-1.2-0.6-1.2-1.4H-44.1z M-45.6,9.3c2.1,0,3.9-0.8,3.9-4.4h-4.9
			c0-1.2,0.5-1.6,1.3-1.6c0.8,0,1.1,0.7,1.1,0.7h2.4c0-1-1.4-2.4-3.6-2.4c-2.5,0-3.7,1.8-3.7,3.7C-49.1,7.1-48,9.3-45.6,9.3"/>
	</g>
	<g id="g3057_2_" transform="matrix(5.4202527,0,0,5.4202527,1972.3577,423.16029)">
		<path id="path3059_2_" d="M-72.2,6.3c0,0.7-0.4,1.4-1.3,1.4c-0.9,0-1.2-0.6-1.2-1.4H-72.2z M-73.8,9.3c2.1,0,3.9-0.8,3.9-4.4h-4.9
			c0-1.2,0.5-1.6,1.3-1.6c0.8,0,1.1,0.7,1.1,0.7h2.4c0-1-1.4-2.4-3.6-2.4c-2.5,0-3.7,1.8-3.7,3.7C-77.2,7.1-76.2,9.3-73.8,9.3"/>
	</g>
	<g id="g3061_2_" transform="matrix(5.4202527,0,0,5.4202527,2195.6071,276.25518)">
		<path id="path3063_2_" d="M-104.5,27.5c0,0.4,0.3,0.7,0.7,0.7c0.4,0,0.7-0.3,0.7-0.7c0-0.4-0.3-0.7-0.7-0.7
			C-104.2,26.8-104.5,27.2-104.5,27.5z M-104.6,27.5c0-0.4,0.3-0.8,0.8-0.8c0.4,0,0.8,0.3,0.8,0.8s-0.4,0.8-0.8,0.8
			C-104.2,28.3-104.6,28-104.6,27.5"/>
	</g>
	<g id="g3065_2_" transform="matrix(5.4202527,0,0,5.4202527,2220.9034,266.28191)">
		<path id="path3067_2_" d="M-108.2,29l-0.2,0.4c0.1,0,0.1,0,0.1,0.1c0,0,0.1,0.1,0.1,0.2c0,0.1-0.1,0.2-0.3,0.2h-0.3V29h0.1v0.4
			h0.2l0.2-0.4H-108.2z M-108.6,29.4v0.3h0.2c0.1,0,0.2-0.1,0.2-0.1c0-0.1-0.1-0.2-0.2-0.2H-108.6"/>
	</g>
</g>
</svg>
