<?xml version="1.0" encoding="utf-8"?>
<!-- Generator: Adobe Illustrator 26.0.1, SVG Export Plug-In . SVG Version: 6.00 Build 0)  -->
<svg version="1.1" id="Layer_1" xmlns="http://www.w3.org/2000/svg" xmlns:xlink="http://www.w3.org/1999/xlink" x="0px" y="0px"
	 viewBox="0 0 288 288" style="enable-background:new 0 0 288 288;" xml:space="preserve">
<path d="M239.4,171.8c-0.3,0-0.7,0-1,0c0-12.4,0-24.9,0-37.7c-1.1,0.7-1.8,1-2.4,1.4c-17.4,11.2-34.7,22.5-52.2,33.7
	c-1.6,1-3.6,1.7-5.5,1.7c-11.4,0.2-22.8,0.1-34.2,0.1c-4,0-5.5-1.6-5.5-5.6c0-13.8,0-27.6,0-41.4c0-0.9,0-1.8,0-3.3
	c-12.9,7.7-25.3,15.2-38.2,22.9c9.2,9.3,18.1,18.3,27.1,27.3c-0.8,0-1.7,0.1-2.5,0.1c-6.7,0-13.4-0.1-20,0.1
	c-3.1,0.1-5.4-0.9-7.5-3.1c-4.5-4.9-9.3-9.6-13.9-14.3c-9,5.4-17.6,10.7-26.2,15.7c-1.7,1-3.8,1.6-5.8,1.6c-7,0.2-14.1,0-21.1,0.1
	c-2.6,0-4.6-0.7-6.1-2.8c0-11.5,0-23,0-34.5c0.9-2.8,2.8-4.5,5.2-5.9c6.4-3.8,12.6-7.7,18.9-11.6c0.3,0,0.7,0,1,0
	c0,14.1,0,28.2,0,42.8c1.4-0.7,2.2-1.1,3-1.6c21.8-13.1,43.5-26.2,65.3-39.2c1.6-1,3.7-1.5,5.5-1.6c11.2-0.1,22.4-0.1,33.7-0.1
	c4.7,0,6.1,1.4,6.1,6.2c0,13.5,0,27.1,0,40.6c0,0.9,0,1.7,0,3c1.1-0.7,1.8-1,2.4-1.4c22-14.1,44-28,65.8-42.4c6.4-4.2,12.7-7,20.5-6
	c1.8,0.2,3.6,0.2,5.4,0c2.6-0.2,4.6,0.6,6.2,2.7c0,11.7,0,23.3,0,35c-0.9,2.7-2.7,4.3-5.1,5.8C252.1,163.9,245.8,167.9,239.4,171.8z
	"/>
</svg>
