<?xml version="1.0" encoding="utf-8"?>
<!-- Generator: Adobe Illustrator 26.0.1, SVG Export Plug-In . SVG Version: 6.00 Build 0)  -->
<svg version="1.1" id="Layer_1" xmlns="http://www.w3.org/2000/svg" xmlns:xlink="http://www.w3.org/1999/xlink" x="0px" y="0px"
	 viewBox="0 0 288 288" style="enable-background:new 0 0 288 288;" xml:space="preserve">
<style type="text/css">
	.st0{fill:#231F20;}
</style>
<g>
	<path class="st0" d="M125.1,123c-3.2,5-3.4,7.4-3.5,9c-0.1,1.6-0.1,4.4,2.5,6.8c4.4,3.9,10.4,3.2,15.8,3.2h44.4
		c1.9,0,2.4-0.5,3.5-1.9c3.5-5.4,5.1-11.3,5.1-16.5c0-11.2-7.3-25.4-25.8-31.8l-2.1,3c14.7,6.9,20.8,16,20.8,28.8
		c0.1,3.4-0.8,7.1-3.1,10.5h-43.2c-2.6,0-2.9-2.9-2-4.5c3.8-6.8,7.8-12.7,12.4-18.9c4.4-5.8,8.7-11.2,13.2-16.9
		c1.2-1.6,0.4-3.1-2-3.6c-5-1.1-10.3-1.8-16.7-1.8c-35.4,0-48.3,20.3-48.3,35.3c0,16.3,13,35.2,48.4,35.2c19.6,0,32.5-6.3,40-14.4
		h-7.5c-6.5,6-17.7,10.2-32.4,10.2c-30,0-41-16.8-41-31.2c0.2-12.9,12.1-30.7,41.8-31.3c1.1,0,2,1,1.2,2
		C141.3,100.3,126.8,120.4,125.1,123"/>
	<path class="st0" d="M258.5,181.2h-28.4c0.4-3.4,3.4-6.3,6.4-6.3h28.7l-0.1-6h-30.5c-9.6,0-17.3,8-17.6,17.3c0,0.6,0.4,1,1.1,1
		l34.6-0.1c1.8,0.2,3.1,1.6,3.1,3.3c0,1.9-1.7,3.3-3.8,3.3h-38v-24.8H203v24.9h-20.6c-5.6,0-6.8-3.4-6.8-6.5v-18.5H157
		c-1.8,1.3-3.6,2.6-5.5,3.8l-11,6.8l-14.3-10.4h-22.3h-21c-5.7,0-10.1,1.5-13.3,4c-5.8,4.6-7.7,9.4-7.6,11.6h7.6
		c-3.3,2.5-5.6,5.5-6.8,8.9H37.9c-4.5,0-7.4-3.2-7.4-6.2v-18.5h-11v19.2c0,6.9,6.6,11.7,17.2,11.7h67.2h16.3
		c1.7-1.2,3.4-2.4,5.2-3.5l11.3-6.8l14.4,10.2h16.4l-21.6-16.2l11.1-7.2c2.4-1.5,4.9-2.8,7.3-4.3V188c0,6.9,1.8,11.7,15.7,11.7
		l78.6-0.2c6.1,0.1,10-4.1,10-9.1C268.5,185.3,264,181.2,258.5,181.2 M118,193.3h-14.1H77.2c0.1-3.2,3.5-6.4,6.6-6.4h20.1h5.6v-6.4
		h-5.6h-27c-0.4-1.9,3.1-5.5,5.8-5.5h21.2h8.1v-3.4l19,13.6L118,193.3z"/>
</g>
</svg>
