<?xml version="1.0" encoding="utf-8"?>
<!-- Generator: Adobe Illustrator 27.5.0, SVG Export Plug-In . SVG Version: 6.00 Build 0)  -->
<svg version="1.1" id="Layer_1" xmlns="http://www.w3.org/2000/svg" xmlns:xlink="http://www.w3.org/1999/xlink" x="0px" y="0px"
	 viewBox="0 0 288 288" style="enable-background:new 0 0 288 288;" xml:space="preserve">
<style type="text/css">
	.st0{fill:#FFFFFF;}
</style>
<path d="M47.3,165.5c-5.5-0.2-11.4-1.2-17-3.5c-4.6-1.8-8.7-4.4-12-8.2c-2-2.3-3.3-4.9-3.8-8c-0.5-2.9,0-5.7,1.3-8.3
	c1.2-2.5,2.9-4.5,5-6.3c3.5-3.1,7.7-5,12.2-6.5c2.6-0.9,5.3-1.4,8.1-1.8c1.8-0.2,3.6-0.3,5.4-0.5c2.8-0.3,5.6-0.1,8.4,0.2
	c6.8,0.6,13.3,2.3,19.2,5.8c3.3,1.9,6,4.4,8,7.6c0.5,0.9,1,1.8,1.3,2.7c1.6,4.5,0.9,8.8-1.6,12.8c-1.8,2.9-4.3,5.2-7.1,7
	c-3.1,2.1-6.6,3.6-10.2,4.7c-3.1,0.9-6.3,1.6-9.5,1.9C52.7,165.5,50.2,165.7,47.3,165.5z M51.1,161.6c2.3-0.1,5-0.4,7.7-1
	c3.8-0.8,7.4-2.1,10.8-4.2c1.2-0.7,1.3-0.9,0.3-1.9c-1.6-1.7-3.3-3.4-5-5c-0.1-0.1-0.3-0.2-0.5-0.2c-0.7-0.2-1.2,0-1.8,0.4
	c-0.3,0.2-0.5,0.4-0.8,0.6c-1,0.6-2.1,1.3-3.1,1.9c-2.7,1.6-5.3,3.1-8,4.7c-1,0.6-2,0.6-3,0c-2.5-1.4-4.9-2.8-7.4-4.2
	c-1.7-1-3.2-2.2-5-3.1c-0.7-0.3-1.2-0.2-1.7,0.2c-0.2,0.2-0.4,0.3-0.5,0.5c-1.5,1.5-3.1,3-4.6,4.5c-0.6,0.6-0.5,1.1,0.2,1.6
	c3.3,2,6.9,3.4,10.6,4.2C43,161.3,46.8,161.6,51.1,161.6z M46.4,126.8c-0.2,0-0.2,0-0.3,0c-1.1,0.1-2.1,0.2-3.2,0.3
	c-3.9,0.5-7.6,1.4-11.2,3.1c-2.8,1.3-5.4,2.9-7.6,5.3c-1.8,2-3,4.3-3.4,6.9c-0.4,2.5,0.1,4.9,1.3,7.1c0.4,0.7,0.5,0.7,1.1,0.2
	c1.4-1.5,2.8-3,4.2-4.5c3.6-3.8,7.2-7.5,11-11.1c2.5-2.3,5-4.5,7.5-6.8C46,127.1,46.2,127,46.4,126.8z M52.3,126.7c0,0,0,0.1,0,0.1
	c0.2,0.2,0.5,0.3,0.7,0.5c3,2.7,6,5.3,8.9,8.1c3.2,3.1,6.2,6.2,9.3,9.4c1.5,1.5,2.8,3,4.3,4.6c0.2,0.2,0.4,0.3,0.6,0.5
	c1-1.5,1.5-3,1.7-4.6c0.5-3.7-0.7-6.9-3.2-9.7c-2.8-3.1-6.3-5.1-10.2-6.5c-3-1.1-6.2-1.7-9.4-2.2C54.3,126.8,53.3,126.8,52.3,126.7z
	 M57.7,143.8c-0.1-0.2-0.2-0.5-0.4-0.7c-0.2-0.3-0.5-0.5-0.8-0.7c-2-1.6-4.1-3.1-6.2-4.7c-0.7-0.5-1.5-0.6-2.2,0
	c-2.2,1.7-4.4,3.4-6.5,5.1c-1,0.8-1,1.2,0,2c0.9,0.7,1.9,1.5,2.9,2.1c1.3,0.8,2.6,1.6,3.9,2.4c0.6,0.3,1.1,0.4,1.8,0
	c2.4-1.3,4.6-2.8,6.8-4.5c0.2-0.2,0.4-0.4,0.5-0.6C57.6,144.1,57.7,144,57.7,143.8z"/>
<path d="M128.5,152.2c0-0.4,0-0.7,0-1c0-3.6,0-7.1,0-10.7c0-1.4-0.2-2-1.9-1.9c-1.6,0-3.3,0-4.9,0c-1,0-1.3,0.3-1.4,1.3
	c0,1.6,0,3.3,0,4.9c0,2.3,0,4.6,0,6.9c0,0.1,0,0.3,0,0.4c-2,0-3.9,0-5.9,0c0-0.4,0-0.7,0-1c0-3.6,0-7.1,0-10.7
	c0-1.6-0.2-1.9-1.9-1.9c-1.6,0-3.3,0-4.9,0c-0.9,0-1.3,0.3-1.4,1.2c0,0.2,0,0.4,0,0.6c0,3.8,0,7.5,0,11.3c0,0.1,0,0.3,0,0.4
	c-2.1,0-4.2,0-6.4,0c0-5.7,0-11.4,0-17.1c0.2,0,0.5,0,0.7,0c4.2,0,8.4,0,12.6,0c0.7,0,1.4,0.1,2.1,0.3c0.8,0.2,1.4,0.6,2,1.2
	c0.1,0.1,0.2,0.2,0.3,0.2c0.1,0,0.1-0.1,0.2-0.1c0.9-1.2,2.2-1.6,3.7-1.6c3.1,0,6.3,0,9.4,0c1.1,0,2.2,0.3,3.1,1.1
	c0.8,0.7,1.3,1.7,1.3,2.8c0,4.3,0,8.5,0,12.8c0,0.4-0.1,0.5-0.5,0.5C132.5,152.2,130.6,152.2,128.5,152.2z"/>
<path d="M146.8,145.6c0,0.2,0,0.5,0,0.7c0,1.8,0,3.6,0,5.4c0,0.4-0.1,0.5-0.5,0.5c-2.2,0-4.3,0-6.5,0c-0.3,0-0.4-0.1-0.4-0.4
	c0-4.2,0-8.5,0-12.7c0-2.2,1.4-3.8,3.6-4c0.5-0.1,0.9-0.1,1.4-0.1c7.2,0,14.5,0,21.7,0c0.9,0,1.8,0.2,2.6,0.6
	c1.2,0.7,1.9,1.8,1.9,3.2c0,4.3,0,8.5,0,12.8c0,0.5-0.1,0.6-0.6,0.6c-2.1,0-4.3,0-6.4,0c-0.1,0-0.2,0-0.3,0c0-2.2,0-4.4,0-6.6
	C157.8,145.6,152.3,145.6,146.8,145.6z M163.3,142.1c0-0.6,0-1.1,0-1.6c0-1.4-0.3-1.8-1.8-1.8c-4.1,0-8.3,0-12.4,0
	c-0.4,0-0.9,0-1.3,0c-0.5,0-1,0.4-1,0.9c0,0.8,0,1.7,0,2.5C152.3,142.1,157.8,142.1,163.3,142.1z"/>
<path d="M273.6,135.1c0,1.1,0,2.2,0,3.3c0,0.3-0.2,0.3-0.4,0.3c-0.7,0-1.5,0-2.2,0c-6.3,0-12.5,0-18.8,0c-0.3,0-0.7,0-0.9,0.2
	c-0.6,0.3-0.9,0.9-0.8,1.5c0.1,0.6,0.7,1.1,1.3,1.2c0.3,0,0.5,0,0.8,0c5.5,0,11,0,16.6,0c1.7,0,3,0.7,3.8,2.3c0.2,0.3,0.3,0.7,0.3,1
	c0.1,1.1,0.1,2.2,0,3.3c-0.1,1.9-1.5,3.3-3.4,3.6c-0.4,0.1-0.8,0.1-1.2,0.1c-8.4,0-16.7,0-25.1,0c-0.2,0-0.4,0-0.6,0
	c0-1.2,0-2.3,0-3.5c0.1,0,0.3,0,0.4,0c6.9,0,13.9,0,20.8,0c0.2,0,0.5,0,0.7-0.1c0.7-0.2,1.1-0.6,1.2-1.2c0.1-1.1-0.2-1.7-1-1.9
	c-0.4-0.1-0.9-0.2-1.4-0.2c-5.4,0-10.9,0-16.3,0c-1.9,0-3.5-1.1-3.9-2.7c-0.1-0.3-0.1-0.7-0.1-1c0-0.7,0-1.5,0-2.2
	c0-2.1,1.4-3.7,3.5-3.9c0.5-0.1,1-0.1,1.5-0.1c8,0,16.1,0,24.1,0C272.9,135.1,273.2,135.1,273.6,135.1z"/>
<path d="M208.4,135.1c1.3,0,2.5,0,3.7,0c1,0,2,0,3,0c0.4,0,0.4,0.1,0.4,0.4c0,3.7,0,7.4-0.1,11.1c0,0.2,0,0.5,0,0.7
	c0.1,1,0.5,1.4,1.6,1.5c1,0,1.9,0,2.9,0c3.5,0,7,0,10.5,0c0.3,0,0.7,0,0.9-0.2c0.4-0.2,0.6-0.6,0.6-1.1c0-4,0-8,0-11.9
	c0-0.1,0-0.3,0-0.5c0.2,0,0.4,0,0.5,0c2.1,0,4.2,0,6.3,0c0.4,0,0.4,0.1,0.4,0.5c0,4.4,0,8.7,0,13.1c0,1.6-1.4,3.2-3.2,3.5
	c-0.4,0.1-0.7,0.1-1.1,0.1c-7.5,0-15.1,0-22.6,0c-1.8,0-3.4-1.2-3.8-2.8c-0.1-0.3-0.1-0.7-0.1-1c0-4.3,0-8.6,0-12.9
	C208.3,135.4,208.4,135.2,208.4,135.1z"/>
<path d="M204.8,135.2c-3.2,2.7-6.5,5.3-9.8,8c3.4,3,6.8,6,10.2,9c-0.3,0-0.4,0-0.6,0c-2.2,0-4.3,0-6.5,0c-0.5,0-0.8-0.1-1.2-0.5
	c-2.5-2.2-4.9-4.5-7.4-6.7c0,0-0.1,0-0.1-0.1c-1.1,1-2.1,1.9-3.2,2.9c-1.5,1.4-3,2.7-4.5,4.1c-0.2,0.2-0.4,0.3-0.7,0.3
	c-2.4,0-4.7,0-7.1,0c0,0,0,0-0.2-0.1c0.2-0.2,0.4-0.3,0.6-0.5c3-2.7,6.1-5.4,9.1-8.1c0.4-0.4,0.4-0.4,0-0.7c-3.1-2.5-6.1-5-9.2-7.5
	c-0.1-0.1-0.2-0.1-0.3-0.1c0-0.1,0.1-0.1,0.1-0.2c0.2,0,0.5,0,0.7,0c2.1,0,4.2,0,6.3,0c0.2,0,0.5,0.1,0.7,0.2
	c2.5,1.9,4.9,3.9,7.3,5.8c0.3,0.2,0.5,0.2,0.7,0c2.4-1.9,4.8-3.9,7.3-5.8c0.3-0.2,0.7-0.3,1-0.3c2,0,3.9,0,5.9,0c0.2,0,0.5,0,0.7,0
	C204.8,135.1,204.8,135.2,204.8,135.2z"/>
<path class="st0" d="M51.1,161.6c-4.3,0-8-0.2-11.7-1.1c-3.8-0.8-7.3-2.2-10.6-4.2c-0.7-0.5-0.8-0.9-0.2-1.6c1.5-1.5,3.1-3,4.6-4.5
	c0.2-0.2,0.3-0.3,0.5-0.5c0.5-0.5,1-0.6,1.7-0.2c1.8,0.8,3.3,2.1,5,3.1c2.5,1.4,4.9,2.8,7.4,4.2c1,0.6,2,0.6,3,0
	c2.7-1.6,5.3-3.1,8-4.7c1-0.6,2.1-1.2,3.1-1.9c0.3-0.2,0.5-0.4,0.8-0.6c0.5-0.4,1.1-0.6,1.8-0.4c0.2,0,0.3,0.1,0.5,0.2
	c1.7,1.7,3.3,3.3,5,5c1,1,1,1.2-0.3,1.9c-3.3,2-7,3.3-10.8,4.2C56.1,161.2,53.3,161.5,51.1,161.6z"/>
<path class="st0" d="M46.4,126.8c-0.2,0.2-0.4,0.4-0.6,0.5c-2.5,2.3-5.1,4.5-7.5,6.8c-3.8,3.6-7.5,7.3-11,11.1
	c-1.4,1.5-2.8,3-4.2,4.5c-0.6,0.6-0.7,0.5-1.1-0.2c-1.2-2.2-1.6-4.6-1.3-7.1c0.4-2.7,1.6-5,3.4-6.9c2.1-2.3,4.7-3.9,7.6-5.3
	c3.6-1.6,7.3-2.6,11.2-3.1c1.1-0.1,2.1-0.2,3.2-0.3C46.2,126.7,46.3,126.7,46.4,126.8z"/>
<path class="st0" d="M52.3,126.7c1,0.1,1.9,0.1,2.9,0.3c3.2,0.4,6.3,1.1,9.4,2.2c3.9,1.4,7.4,3.4,10.2,6.5c2.4,2.8,3.6,6,3.2,9.7
	c-0.2,1.6-0.8,3.1-1.7,4.6c-0.2-0.2-0.4-0.3-0.6-0.5c-1.4-1.5-2.8-3.1-4.3-4.6c-3.1-3.1-6.1-6.3-9.3-9.4c-2.9-2.8-5.9-5.4-8.9-8.1
	c-0.2-0.2-0.5-0.4-0.7-0.5C52.3,126.8,52.3,126.8,52.3,126.7z"/>
<path class="st0" d="M57.7,143.8c-0.1,0.2-0.1,0.3-0.2,0.4c-0.2,0.2-0.3,0.4-0.5,0.6c-2.1,1.7-4.4,3.2-6.8,4.5
	c-0.6,0.3-1.2,0.3-1.8,0c-1.3-0.8-2.6-1.5-3.9-2.4c-1-0.6-2-1.4-2.9-2.1c-1-0.8-1-1.2,0-2c2.1-1.7,4.3-3.4,6.5-5.1
	c0.7-0.6,1.5-0.5,2.2,0c2.1,1.6,4.1,3.1,6.2,4.7c0.3,0.2,0.5,0.5,0.8,0.7C57.5,143.3,57.6,143.6,57.7,143.8z"/>
<path class="st0" d="M163.3,142.1c-5.5,0-11,0-16.5,0c0-0.9,0-1.7,0-2.5c0-0.5,0.5-0.9,1-0.9c0.4,0,0.9,0,1.3,0c4.1,0,8.3,0,12.4,0
	c1.4,0,1.8,0.4,1.8,1.8C163.3,141,163.3,141.5,163.3,142.1z"/>
</svg>
