<?xml version="1.0" encoding="utf-8"?>
<!-- Generator: Adobe Illustrator 26.0.1, SVG Export Plug-In . SVG Version: 6.00 Build 0)  -->
<svg version="1.1" id="Layer_1" xmlns="http://www.w3.org/2000/svg" xmlns:xlink="http://www.w3.org/1999/xlink" x="0px" y="0px"
	 viewBox="0 0 288 288" style="enable-background:new 0 0 288 288;" xml:space="preserve">
<style type="text/css">
	.st0{fill:#231F20;}
</style>
<g>
	<path class="st0" d="M204.1,75.1c-15-16.1-39.6-19.6-60.2-19.6C123,55.5,97.7,59,83,76c-0.3,0.3-0.5,0.6-0.7,0.9
		c-7.2,8.6-11.7,21-11.7,37.6c0,51.1,41.7,59.3,73.3,59.3c31.9,0,73.6-8.2,73.6-59.3c0-16.6-4.5-28.9-11.7-37.6
		C205.1,76.4,204.6,75.7,204.1,75.1 M96.1,85.1c9.9-15.2,28.6-18.9,47.8-18.9c19.2,0,37.5,3.5,47.6,18.4c0.2,0.4,0.4,0.7,0.6,1
		c-17,10-36.5,10.3-48.2,35.4C131.1,96.8,111.9,96.6,95.1,87C95.4,86.3,95.7,85.8,96.1,85.1 M143.9,163.1c-28.3,0.2-55-7.9-55-48.5
		c0-3,0-6.1,0.5-8.6c0.2-0.6,0.3-1.1,0.4-1.7c9.5,3.2,19.1,6.4,28.6,9.6c11.2,4.7,18.7,11.2,25.5,25.9c6.8-14.7,14.1-22.2,25.5-26.8
		c9.6-3.4,19.2-6.9,28.8-10.3c0.1,0.2,0.1,0.5,0.2,0.7c0.5,3.2,0.7,7.2,0.7,11.2C199.2,155.1,172.2,163.3,143.9,163.1"/>
	<g>
		<polygon class="st0" points="148.6,203 163.7,190.4 131.9,190.4 131.9,203 		"/>
		<path class="st0" d="M251.2,190.4h-28.1v11.4h22.3c6.5,0,5.5,4.2,5.5,4.2H233c-2.2,0-9.2-0.3-12.6,5.1v-2
			c0-19.2-14.5-18.7-14.5-18.7h-37.8l-38.5,30.3v-18.6c0-12.2-12.6-11.7-12.6-11.7H89.1v11.4h22.3c6.5,0,5.6,4.2,5.6,4.2H99.1
			c-2.2,0-9-0.3-12.4,4.9v-4.7c0-16.8-15.2-15.8-15.2-15.8H24.2v42.1h14.3V203h10v29.5h13.6V203h4.6c6.6,0,5.8,5.4,5.8,5.4v24.1
			h14.1v-5.6c3.4,5.6,10.2,5.6,10.2,5.6H136l38.6-31v30.9h30.3c5.8,0,11.2-2.9,13.8-10.7c1.5,10.7,12.2,10.9,12.2,10.9h32.8v-30.4
			C263.8,189.9,251.2,190.4,251.2,190.4 M116.8,221h-15c0,0-3,0.2-3-2.9c0-2.5,2.4-2.7,3.2-2.7h14.8V221z M201,220.1h-12.8v-17.8
			h12.9c0,0,6.1,0.5,6.1,8.3C207.3,218.4,204.4,220.1,201,220.1 M250.5,221h-15c0,0-3.1,0.2-3.1-2.9c0-2.5,2.5-2.7,3.4-2.7h14.6V221
			z"/>
		<polygon class="st0" points="140.4,232.5 172.2,232.5 172.2,220.1 155.6,220.1 		"/>
	</g>
</g>
</svg>
