<?xml version="1.0" encoding="utf-8"?>
<!-- Generator: Adobe Illustrator 26.0.1, SVG Export Plug-In . SVG Version: 6.00 Build 0)  -->
<svg version="1.1" id="Layer_1" xmlns="http://www.w3.org/2000/svg" xmlns:xlink="http://www.w3.org/1999/xlink" x="0px" y="0px"
	 viewBox="0 0 288 288" style="enable-background:new 0 0 288 288;" xml:space="preserve">
<style type="text/css">
	.st0{fill:#091923;}
</style>
<path d="M144.7,65.2c-31.6,0-57.1,25.6-57.1,57.1s25.6,57.1,57.1,57.1s57.1-25.6,57.1-57.1C201.8,90.8,176.3,65.3,144.7,65.2
	C144.7,65.2,144.7,65.2,144.7,65.2z M97.9,95.5c9.5-16.5,27.1-26.7,46.1-27l-7.4,48.9l0,0l-39,31.6C88.2,132.4,88.3,112,97.9,95.5z
	 M144.9,176.5c-19.1,0.1-36.8-9.9-46.6-26.4l46.4-19.2l46.6,18.9C181.6,166.4,164,176.5,144.9,176.5L144.9,176.5z M152.5,118.1
	L152.5,118.1l-7.1-49.6c29.9,0.5,53.7,25.1,53.2,55c-0.1,8.8-2.4,17.5-6.7,25.2L152.5,118.1z"/>
<path d="M136.6,117.4"/>
<path class="st0" d="M118.7,215.8c-0.5,3.6-2.4,5.5-5.4,5.5c-3.8,0-5.5-2.9-5.6-9.6h12.6c-0.1-6.5-2.8-10-7.7-10s-8.2,4.1-8.2,10.6
	s3.2,10.3,8.6,10.3c4.1,0,6.8-2.6,7.4-6.9L118.7,215.8z M112.6,202.9c2.8,0,4.1,2.4,4.4,7.4h-9.1
	C108.3,205.4,109.9,202.9,112.6,202.9z"/>
<path class="st0" d="M46.1,218.5l-0.5-20.8v-0.3c0-1.9,0.6-2.3,3.5-2.5v-1.1c-1.6,0.1-2.3,0.2-3.3,0.2c-1.3,0-2.2,0-4.1-0.2l-8,21.4
	l-7.9-21.4c-1.3,0.2-2.7,0.2-4,0.2c-1.2,0-1.8,0-3.5-0.2v1.1c2.9,0.2,3.5,0.6,3.5,2.5v0.2l-0.9,20.8c-0.1,2.3-0.5,2.6-3.5,2.8v1
	c2.2-0.2,3-0.2,4.2-0.2s2,0,4.2,0.2v-1c-3-0.2-3.5-0.6-3.5-2.4v-0.4l0.8-21.9l6.9,18.7l0.5,1.5l0.6,1.6l0.6,1.7l0.5,1.4h0.6l0.5-1.4
	l0.6-1.6l0.6-1.6l0.5-1.4l7-18.9l0.4,21.9v0.2c0,2-0.6,2.4-3.5,2.6v1c1.8-0.2,3.5-0.3,5.3-0.3c1.8,0,3.5,0.1,5.3,0.3v-1
	C46.6,221.1,46.2,220.8,46.1,218.5z"/>
<path class="st0" d="M60.6,221.3c-3.8,0-5.5-2.9-5.6-9.6h12.6c-0.1-6.5-2.8-10-7.7-10s-8.2,4.1-8.2,10.6s3.2,10.3,8.6,10.3
	c4.1,0,6.8-2.6,7.4-6.9H66C65.5,219.4,63.6,221.3,60.6,221.3z M59.8,202.9c2.7,0,4.1,2.4,4.4,7.4h-9.1
	C55.5,205.4,57.1,202.9,59.8,202.9z"/>
<path class="st0" d="M94.9,221.3c-3.2,0-4.9-3-4.9-8.9s1.9-9.5,5-9.5c2.6,0,4.1,1.8,4.9,5.4h0.9v-7h-0.7l-1.1,2.2
	c-1.1-1.2-2.7-1.9-4.3-1.8c-5,0-8.4,4.3-8.4,10.6s3.3,10.3,8.2,10.3c3.8,0,6.2-2.4,6.8-7h-1.7C99.1,219.5,97.6,221.3,94.9,221.3z"/>
<path class="st0" d="M81,201.8c-2.2,0-4,1.4-5,3.8v-0.5c-0.1-1.3-0.2-1.9-0.4-3.5c-1.8,0.5-3.7,0.9-5.6,1v0.8h0.6
	c2.2,0.1,2.4,0.2,2.4,2.1v13.8c0,1.8-0.5,2.2-3,2.3v0.8c3.1-0.3,6.3-0.3,9.4,0v-0.8c-2.6-0.1-3-0.5-3-2.3v-8.8
	c0-4.2,1.4-6.9,3.6-6.9c0.8,0,1.3,0.4,1.3,1v0.4l-0.1,0.4c0,0.1-0.1,0.3-0.1,0.4c0.1,0.9,0.8,1.5,1.7,1.4c0,0,0,0,0.1,0
	c1,0,1.8-0.8,1.8-1.8c0-0.1,0-0.1,0-0.2c0-1.9-1.5-3.5-3.3-3.5C81.3,201.8,81.2,201.8,81,201.8z"/>
<rect x="180.4" y="209.9" class="st0" width="9.4" height="2.2"/>
<path class="st0" d="M208.6,208.6c-1-0.7-2.1-1.2-3.3-1.4c3-1.1,4.6-3.3,4.6-6.3c0-2.1-0.9-4.1-2.5-5.4c-1.4-1.1-3.1-1.5-5.8-1.5
	h-11.1v1.1c3.1,0.2,3.5,0.5,3.5,2.8v20.5c0,2.3-0.3,2.6-3.5,2.8v1h10.7c3.1,0,4.8-0.4,6.6-1.5c2.2-1.5,3.5-3.9,3.5-6.6
	C211.2,212,210.3,209.9,208.6,208.6z M197.4,195.4h3.6c3.6,0,5.1,1.7,5.1,5.7c0.1,1.6-0.4,3.2-1.4,4.4c-0.9,1.1-2.1,1.4-4.4,1.4
	h-2.9V195.4z M201.5,220.9H200c-2.2,0-2.6-0.3-2.6-2.2v-10.6h4c2.2,0,3.5,0.4,4.5,1.4c1.1,1.4,1.6,3.1,1.5,4.8
	C207.4,218.6,205.3,220.9,201.5,220.9z"/>
<path class="st0" d="M250.8,219.2v-10.1c0-1.3-0.2-2.6-0.6-3.8c-1-2.2-3.2-3.5-5.6-3.4c-2.4,0-4.2,1-5.7,3.3c0-1.2-0.2-2.5-0.4-3.7
	c-1.8,0.6-3.7,1.1-5.6,1.3v0.7c0.2,0,0.4,0,0.6,0c2.1,0,2.4,0.2,2.4,2v13.7c0,1.8-0.4,2.2-3,2.3v0.9c1.5-0.2,3-0.3,4.6-0.2
	c1.5,0,3,0.1,4.6,0.2v-0.9c-2.2-0.1-2.8-0.5-2.8-2.2v-10.2c0-3.5,1.5-5.3,4.4-5.3c2.7,0,3.8,1.5,3.8,5.2v10.4c0,1.7-0.6,2.1-2.8,2.2
	v0.9c1.5-0.2,3.1-0.3,4.6-0.2c1.5,0,3.1,0.1,4.6,0.2v-0.9C251.2,221.4,250.8,221.1,250.8,219.2z"/>
<path class="st0" d="M223.6,221.3c-3.9,0-5.5-2.9-5.6-9.6h12.6c-0.1-6.5-2.7-10-7.7-10s-8.2,4.1-8.2,10.6s3.2,10.3,8.6,10.3
	c4.1,0,6.8-2.6,7.4-6.9h-1.7C228.4,219.4,226.6,221.3,223.6,221.3z M222.8,202.9c2.7,0,4.1,2.4,4.4,7.4h-9.1
	C218.5,205.4,220.1,202.9,222.8,202.9z"/>
<path class="st0" d="M264.8,221.1h-4.9l11.5-18.9h-14.5l-1,5.5h0.9c1.5-3.8,2.2-4.4,4.9-4.4h5.2l-11.4,18.9h14.5l1.1-6.1h-0.9
	C268.9,220,267.7,221.1,264.8,221.1z"/>
<path class="st0" d="M153.6,221.3c-3.9,0-5.5-2.9-5.6-9.6h12.6c-0.1-6.5-2.8-10-7.7-10s-8.2,4.1-8.2,10.6s3.2,10.3,8.6,10.3
	c4.1,0,6.8-2.6,7.4-6.9H159C158.5,219.4,156.6,221.3,153.6,221.3z M152.9,202.9c2.8,0,4.1,2.4,4.4,7.4h-9.1
	C148.6,205.4,150.2,202.9,152.9,202.9z"/>
<path class="st0" d="M140,218L140,218v-24.4c-2.1,0.6-4.2,0.9-6.4,1.2v0.7c2.7,0,3,0.3,3,2.5v7.4c-1.6-2.5-2.8-3.3-5.1-3.3
	c-4.5,0-7.7,4.3-7.7,10.4s3.2,10.4,7.8,10.4c2.4,0,4-1.1,5.2-3.5c0.1,1.1,0.3,2.3,0.6,3.4c1.6-0.5,3.3-0.9,5-1l0.6-0.1v-0.7
	C140.3,220.8,140,220.6,140,218z M132,221.6L132,221.6c-3,0-4.6-3.2-4.6-9.2s1.5-9.1,4.5-9.1s4.7,3.2,4.7,9.4
	C136.7,218.5,135.1,221.6,132,221.6L132,221.6z"/>
<path class="st0" d="M173.5,211.3l-1.8-0.8c-3.9-1.7-4.5-2.2-4.5-3.9c0.1-2,1.8-3.6,3.9-3.5c0,0,0.1,0,0.1,0c2.7,0,4.1,1.6,4.4,5h1
	v-6.6H176l-0.7,1.7c-1.3-0.9-2.8-1.4-4.3-1.4c-3.7,0-6.3,2.3-6.3,5.6c0,2.4,1,3.6,4.1,5.1l1.9,0.9l1.6,0.7c2.1,0.9,2.9,1.9,2.9,3.3
	c0,2.1-1.9,3.8-4.4,3.8c-3,0-4.7-1.9-5.5-5.7h-0.9v7.1h0.8l1-1.9c1.4,1.2,3.2,1.8,5.1,1.8c4,0,6.8-2.5,6.8-6.1
	C177.9,214.1,176.8,212.7,173.5,211.3z"/>
</svg>
