<?xml version="1.0" encoding="utf-8"?>
<!-- Generator: Adobe Illustrator 26.0.1, SVG Export Plug-In . SVG Version: 6.00 Build 0)  -->
<svg version="1.1" id="Layer_1" xmlns="http://www.w3.org/2000/svg" xmlns:xlink="http://www.w3.org/1999/xlink" x="0px" y="0px"
	 viewBox="0 0 288 288" style="enable-background:new 0 0 288 288;" xml:space="preserve">
<g id="layer1_2_" transform="translate(-22.579725,-154.43183)">
	<path id="circle828_1_" d="M166.6,247.7c-17.3,0-33.5,8.8-42.8,23.5h-73l7.3,7.3H120c-1.2,2.7-2.1,5.6-2.8,8.5H66.5l7.2,7.2H116
		c-0.1,1.5-0.2,2.9-0.2,4.4c0,1.4,0.1,2.7,0.2,4.1H82.2l7.2,7.2h27.8c0.6,2.9,1.5,5.7,2.7,8.5h-22l7.3,7.3h18.6
		c9.3,14.8,25.5,23.8,42.9,23.8c17.4,0,33.7-9,42.9-23.8h18.6l7.3-7.3h-22c1.1-2.7,2-5.6,2.7-8.5h27.8l7.2-7.2h-33.8
		c0.1-1.4,0.2-2.7,0.2-4.1c0-1.5-0.1-2.9-0.2-4.4h42.3l7.2-7.2h-50.7c-0.7-2.9-1.6-5.7-2.8-8.5h61.9l7.3-7.3h-73
		C200,256.5,183.9,247.7,166.6,247.7z M166.6,254.5c24.2,0,43.9,19.6,43.9,43.9l0,0c0,24.2-19.6,43.9-43.9,43.9
		s-43.9-19.6-43.9-43.9C122.7,274.2,142.3,254.5,166.6,254.5L166.6,254.5z M131.7,287.1v22.7h4.7v-17.9l5,17.9h4.9l5-17.9v17.9h4.7
		v-22.7h-7.7l-4.5,15.5l-4.6-15.5H131.7z M161.1,287.1v22.7h5.1v-22.7H161.1z M171.1,287.1v22.7h4.7V295l10.2,14.8h5.1v-22.7h-4.7
		v15.2L176,287.1H171.1z M196.4,287.1v22.7h5.1v-22.7H196.4z"/>
</g>
</svg>
