<?xml version="1.0" encoding="utf-8"?>
<!-- Generator: Adobe Illustrator 26.0.1, SVG Export Plug-In . SVG Version: 6.00 Build 0)  -->
<svg version="1.1" id="Layer_1" xmlns="http://www.w3.org/2000/svg" xmlns:xlink="http://www.w3.org/1999/xlink" x="0px" y="0px"
	 viewBox="0 0 288 288" style="enable-background:new 0 0 288 288;" xml:space="preserve">
<style type="text/css">
	.st0{fill:#231F20;}
</style>
<polygon class="st0" points="143.9,39 111.9,94.4 143.9,149.5 176.1,94.4 "/>
<polygon class="st0" points="143.9,149.5 176.1,204.7 240,204.7 208.1,149.5 "/>
<polygon class="st0" points="48,204.7 111.9,204.7 143.9,149.5 80,149.5 "/>
<polygon class="st0" points="71.6,232.8 66.5,220.7 61.2,220.7 61.2,247.2 65.9,247.2 65.9,229.9 71.6,242.5 77.6,229.9 77.6,247.2 
	82.4,247.2 82.4,220.7 77.1,220.7 "/>
<polygon class="st0" points="93.6,224.7 99.3,224.7 99.3,247.2 104,247.2 104,224.7 109.7,224.7 109.7,220.7 93.6,220.7 "/>
<rect x="86.5" y="220.7" class="st0" width="4.8" height="26.6"/>
<rect x="170.6" y="220.7" class="st0" width="4.8" height="26.6"/>
<rect x="222.1" y="220.7" class="st0" width="4.8" height="26.6"/>
<path class="st0" d="M120.2,231.8c-3.8-1.9-5.2-2.8-5.2-4.7c0-1.7,1.2-2.6,3.3-2.6c2.4,0,3.6,2.1,3.6,4.3h4.8
	c-0.2-4.5-2.4-8.3-8.4-8.3c-5.5,0-8.1,2.8-8.1,6.9c0,3.8,2.4,5.9,5.9,8c5,2.8,6.2,3.6,6.2,5.2c0,1.9-1.4,3.1-3.8,3.1
	c-2.9,0-4-2.4-4-4.7h-4.5c0.2,5,2.4,9,8.6,9c4.5,0,8.6-2.6,8.6-7.6C127.1,236.1,124.5,234.2,120.2,231.8"/>
<path class="st0" d="M142.4,238.9c0,2.8-1.4,4.5-4,4.5c-3.1,0-4.6-1.6-4.6-4.5v-18.3h-4.7v18.3c0,7.1,5,8.8,9.3,8.8
	c4,0,8.7-1.9,8.7-8.8v-18.3h-4.8V238.9z"/>
<path class="st0" d="M163.3,233.2c1.2-0.3,3.8-2.4,3.8-5.9c0-4.3-3.1-6.6-8.1-6.6h-8.8v26.6h9.7c4.8,0,8.1-3.1,8.1-7.4
	C168.1,235.6,165,233.7,163.3,233.2 M158.8,243.2H155v-18.5h3.6c2.2,0,3.8,0.9,3.8,3.3c0,2.4-1.4,3.3-3.8,3.3h-1.9v4.3h1.9
	c2.8,0,4.5,1,4.5,3.6C163.1,242,161.4,243.2,158.8,243.2"/>
<polygon class="st0" points="212.5,231.1 203,231.1 203,220.7 198,220.7 198,247.2 203,247.2 203,235.6 212.8,235.6 212.8,247.2 
	217.5,247.2 217.5,220.7 212.5,220.7 "/>
<path class="st0" d="M188.8,231.6c-3.8-2.1-5.3-3.1-5.3-4.7c0-1.7,1.4-2.6,3.3-2.6c2.4,0,3.6,1.9,3.8,4.3h4.5
	c-0.2-4.5-2.3-8.3-8.3-8.3c-5.5,0-8.1,2.9-8.1,6.9c0,3.8,2.4,5.9,5.9,7.8c5,2.8,6.2,3.8,6.2,5.4c0,1.9-1.4,3.1-3.8,3.1
	c-2.9,0-4-2.6-4-5h-4.5c0.3,5.2,2.4,9,8.6,9c4.5,0,8.6-2.6,8.6-7.3C195.6,235.6,193.1,234,188.8,231.6"/>
</svg>
