<?xml version="1.0" encoding="utf-8"?>
<!-- Generator: Adobe Illustrator 26.0.1, SVG Export Plug-In . SVG Version: 6.00 Build 0)  -->
<svg version="1.1" id="Layer_1" xmlns="http://www.w3.org/2000/svg" xmlns:xlink="http://www.w3.org/1999/xlink" x="0px" y="0px"
	 viewBox="0 0 288 288" style="enable-background:new 0 0 288 288;" xml:space="preserve">
<g id="Layer_1_1_">
	<g id="Nissan_Badge_1_">
		<g id="g20_2_">
			<path id="path4_2_" d="M163.7,155.4c-0.2,0-0.9,0-1.2,0h-23.7v5.5h24.2c0.2,0,1.6,0,1.9,0c4.9-0.5,7.2-4.6,7.2-8.1
				c0-3.7-2.3-7.6-6.8-8.1c-0.9-0.1-1.6-0.1-1.9-0.1h-15.8c-0.7,0-1.5,0-1.7-0.1c-1.2-0.3-1.7-1.4-1.7-2.3c0-0.8,0.5-1.9,1.7-2.3
				c0.4-0.1,0.8-0.1,1.7-0.1h22.8v-5.4H147c-1,0-1.7,0-2.3,0.1c-4,0.6-6.7,3.7-6.7,7.8c0,3.3,2.1,7.2,6.6,7.8c0.8,0.1,2,0.1,2.5,0.1
				h15.4c0.3,0,1,0,1.1,0c1.7,0.2,2.3,1.5,2.3,2.7C165.9,153.9,165.2,155.1,163.7,155.4z"/>
			<path id="path6_2_" d="M118.7,155.4c-0.2,0-0.9,0-1.2,0H93.7v5.5h24.2c0.2,0,1.6,0,1.9,0c4.9-0.5,7.2-4.6,7.2-8.1
				c0-3.7-2.3-7.6-6.8-8.1c-0.9-0.1-1.6-0.1-1.9-0.1h-15.8c-0.7,0-1.5,0-1.7-0.1c-1.2-0.3-1.7-1.4-1.7-2.3c0-0.8,0.5-1.9,1.7-2.3
				c0.4-0.1,0.8-0.1,1.7-0.1h22.8v-5.4H102c-1,0-1.7,0-2.3,0.1c-4,0.6-6.7,3.7-6.7,7.8c0,3.3,2.1,7.2,6.6,7.8c0.8,0.1,2,0.1,2.5,0.1
				h15.4c0.3,0,1,0,1.1,0c1.7,0.2,2.3,1.5,2.3,2.7C120.9,153.9,120.3,155.1,118.7,155.4z"/>
			<rect id="rect8_2_" x="75.4" y="134.1" width="6" height="27"/>
			<polygon id="polygon10_2_" points="62.2,161.1 62.2,134.1 56.2,134.1 56.2,154.2 36.3,134.1 28.6,134.1 28.6,161.1 34.6,161.1 
				34.6,140.9 54.6,161.1 			"/>
			<polygon id="polygon12_2_" points="254.6,134.1 254.6,154.2 234.6,134.1 227,134.1 227,161.1 232.9,161.1 232.9,140.9 253,161.1 
				260.5,161.1 260.5,134.1 			"/>
			<path id="path14_3_" d="M195.8,134.1l-16.8,27h7.3l3-4.8h19.6l3,4.8h7.2l-16.8-27H195.8z M205.8,151.2h-13.5l6.8-10.9
				L205.8,151.2z"/>
			<path id="path16_3_" d="M61.8,118.8c12.1-35.2,45.3-58.9,82.7-58.9s70.7,23.7,82.7,58.9l0.1,0.3h26.4v-3.2l-11-1.3
				c-6.8-0.8-8.2-3.8-10-7.5l-0.5-0.9c-15.8-33.7-50.3-55.5-87.8-55.5c-37.5,0-71.9,21.8-87.8,55.6l-0.5,0.9
				c-1.8,3.8-3.3,6.8-10,7.5l-11,1.3v3.2h26.3L61.8,118.8z"/>
			<path id="path18_3_" d="M227.4,176.2l-0.1,0.3c-12.1,35.2-45.3,58.8-82.7,58.8l0,0c-37.5,0-70.7-23.7-82.7-58.9l-0.1-0.3H35.4
				v3.2l11,1.3c6.8,0.8,8.2,3.8,10,7.5l0.5,0.9c15.8,33.8,50.3,55.6,87.8,55.6l0,0c37.5,0,71.9-21.8,87.8-55.5l0.5-0.9
				c1.8-3.8,3.3-6.8,10-7.5l11-1.3v-3.2L227.4,176.2z"/>
		</g>
		<g id="Layer_2_2_">
			<g id="Layer_3_1_">
			</g>
		</g>
	</g>
</g>
</svg>
