<?xml version="1.0" encoding="utf-8"?>
<!-- Generator: Adobe Illustrator 26.0.1, SVG Export Plug-In . SVG Version: 6.00 Build 0)  -->
<svg version="1.1" id="Layer_1" xmlns="http://www.w3.org/2000/svg" xmlns:xlink="http://www.w3.org/1999/xlink" x="0px" y="0px"
	 viewBox="0 0 288 288" style="enable-background:new 0 0 288 288;" xml:space="preserve">
<style type="text/css">
	.st0{fill-rule:evenodd;clip-rule:evenodd;fill:#231F20;}
</style>
<path class="st0" d="M73.2,104.7c0,0.9-0.1,1.8-0.1,2.7c0,36.9,29.9,66.8,66.8,66.8c30.6,0,56.3-20.6,64.3-48.6L97,126.7l25.8-19.8
	L73.2,104.7z M75.6,89.4l107.8-1l-26.3,20l49.5,2.1c0-1,0.1-2,0.1-3.1c0-36.9-29.9-66.7-66.8-66.7C109.3,40.7,83.5,61.3,75.6,89.4z
	 M128.3,229.4c3.5,0,6.1-1.8,6.1-6.3c0-4.5-2.6-6.3-6.1-6.3l-19.4,0c-0.3,0-0.6,0.3-0.6,0.6v11.5c0,0.3,0.3,0.6,0.6,0.6L128.3,229.4
	z M215.5,207.2c0-0.5,0.4-1,1-1h15.9c0.5,0,1,0.4,1,1v36.8c0,0.3,0.3,0.6,0.6,0.6h33.7c0.5,0,1,0.4,1,1v8.6c0,0.5-0.4,1-1,1h-51.5
	c-0.3,0-0.6-0.3-0.6-0.6V207.2z M209.7,206.2c0.5,0,1,0.4,1,1v8.6c0,0.5-0.4,1-1,1h-36.5c-0.3,0-0.6,0.3-0.6,0.6v7.5
	c0,0.3,0.2,0.6,0.6,0.6h28.4c0.5,0,1,0.4,1,1v8.6c0,0.5-0.4,1-1,1h-28.4c-0.3,0-0.6,0.3-0.6,0.6v7.5c0,0.3,0.2,0.6,0.6,0.6h36.5
	c0.5,0,1,0.4,1,1v8.6c0,0.5-0.4,1-1,1h-54.3c-0.3,0-0.6-0.3-0.6-0.6v-47.7c0-0.3,0.3-0.6,0.6-0.6H209.7z M62.4,243.7
	c2.7-0.4,5.5-2.3,6.3-5.7c0.5-1.9,0.4-12.8,0-15c-0.9-3.5-3.6-5-6.3-5.3c-6.6-0.8-13.6-0.7-19.7,0c-2.7,0.3-5.5,1.9-6.3,5.3
	c-0.5,2.2-0.5,13.2,0,15c0.9,3.5,3.6,5.3,6.3,5.7C48.8,244.5,55.8,244.5,62.4,243.7z M70.5,254.9c-13,1.5-24.2,1.4-36,0
	c-5.3-0.8-12.2-3.9-13.9-10.7c-1.7-6.7-1.5-20.1,0-27.5c1.7-6.8,8.5-9.9,13.9-10.6c11.8-1.4,23-1.5,36,0c5.4,0.6,12.2,3.8,13.9,10.6
	c1.5,7.4,1.7,20.8,0,27.5C82.7,251,75.8,254.1,70.5,254.9z M135.2,239.9h-26.3c-0.3,0-0.6,0.3-0.6,0.6v13.6c0,0.5-0.4,1-1,1H91.5
	c-0.5,0-1-0.4-1-1v-47.3c0-0.3,0.3-0.6,0.6-0.6l44.1,0c9.3,0,16,4.9,16,16.9C151.2,235,144.5,239.9,135.2,239.9z M64.5,104.3
	l-23.4-1V89.7l25.5-0.3c8-33,37.8-57.5,73.3-57.5c41.6,0,75.4,33.8,75.4,75.4c0,1.2,0,2.3-0.1,3.4l23.3,1v13.4l-25.3,0.3
	c-8.1,32.9-37.8,57.3-73.2,57.3c-41.6,0-75.4-33.8-75.4-75.4C64.5,106.4,64.5,105.4,64.5,104.3z"/>
</svg>
