<?xml version="1.0" encoding="utf-8"?>
<!-- Generator: Adobe Illustrator 26.0.1, SVG Export Plug-In . SVG Version: 6.00 Build 0)  -->
<svg version="1.1" id="Layer_1" xmlns="http://www.w3.org/2000/svg" xmlns:xlink="http://www.w3.org/1999/xlink" x="0px" y="0px"
	 viewBox="0 0 288 288" style="enable-background:new 0 0 288 288;" xml:space="preserve">
<style type="text/css">
	.st0{fill:#231F20;}
</style>
<g>
	<path d="M199.6,161.5c-2.1-6.7-10.8-23.6-17.6-33.2c-1.5-2-1-3.1-0.1-3.8c0.8-0.7,3.3-2.9,6.3-6.6c3-3.6,3.7-7.8,1.6-13.8
		c-2.1-6-9.1-19.9-10.6-24.6c-1.7-5.4-1.9-7.8-0.8-10.6c1.2-3.4,2.9-3.5,4.3-3.5c0.7,0,1.3,0.8,1.3,1.2c0.1,1.6,0.1,3.4,1.5,7.3
		c2.2,6.2,8,10.3,9.8,11.1c1.3,0.6,1.5-0.5,1.4-1c-0.1-0.5-2-8.2-3.4-14.1c-1.5-6.1-2.2-7.4-3.5-8.7c-2-2-5.2-3.2-7.9-3.1
		c-6,0.2-8.6,6.3-9,6.9c-0.3,0.5-0.4,0.8-1,0.4c-1.7-1.3-6.7-5.7-7.1-8.4c-0.3-1.6-0.5-1.9-2-2.5c-6-2.5-11.1-4.6-16.9-5.7
		c-2.3-0.4-2.4-0.7-5.1-0.1c-4.6,0.9-7.3,2-10.8,3.9c-1.9,1.1-2.1,1.8-2.5,2.2c-0.3,0.4-0.6,0.9-1.3,1.1c-1.1,0.4-5.4,2-6.8,2.9
		c-0.9,0.5-1.4,1.1-1,2.2c0.8,1.9,3.2,5.9,4.3,6.9c0.7,0.6,2.2,1,2.6,1.1c0.4,0.1,0.7,0.2,0.8-0.1c0.2-0.4,0.2-0.8,1-1.4
		c1.1-0.8,3.2-1.4,4.4-1.6c0.9-0.1,1.4-0.1,1.9,0.2c0.4,0.4,1.5,1.5,1.9,2.6c0.4,1.1,0.1,1.6-0.5,1.9c-0.6,0.3-2.4,0.7-4.6,0.9
		c-2.1,0.2-2.7-0.4-2.8-0.6c-0.1-0.1-0.4-0.3-0.6,0c-0.4,0.5-0.9,0.9-1.7,1.3c-0.5,0.2-0.7,0.8-0.3,1.6c1.4,2.5,3.1,5.2,4.8,5.8
		c1.3,0.4,2,0,3.5-1.1c1.3-1,2.2-1,2.5-0.7c0.4,0.3,1.2,1,1,1.7c-0.4,1.3-2.7,4.2-3.1,4.8s-0.8,0.9-1.6,0.5
		c-1.1-0.6-18.1-9.9-20.3-10.8c-2.5-1-4.1-1.3-6.5-1.4c-2-0.1-4.6,0.1-6.2,0.4c-1.2,0.2-1.9,0.8-2.9,1.9c-1.6,1.5-3.1,3.4-3.3,5
		c-0.1,1.1,1.1,3.5,1.3,3.7c0.1,0.2,0.4,0.5,1,0.4c0.7-0.1,2.3-1,4.3-0.7c1.9,0.4,2,1.9,2,2.9c0,0.2,0.2,0.7,0.8,0.7
		c0.7,0,1.9,0,3.1,0.7c1.6,0.8,4.8,3.4,5.3,4c0.4,0.5,0.4,0.9-0.4,1c-4,0.4-10.2,1.7-13,2.6c-2,0.7-4.4,1.7-5.2,3.2
		c-1,1.8-2.1,4.6-2.5,6.6c-0.4,2,1.7,4.4,2.2,5c0.4,0.4,0.6,0.6,1.3,0.2c1-0.6,3.4-2.1,5.7-2.3c1.4-0.1,2,1.3,2.2,1.8
		c0.4,0.5,0.7,0.2,1.9-0.2c2.2-0.7,14.5-0.4,18.8-0.2c2,0.1,4.7,0.4,6.7,1.6c2,1.2,5.7,4.8,5.7,4.8s-4.9,8.6-7.5,13.7
		c-2.4,4.7-4.2,8.2-5,10.3c-0.8,1.9-1.5,4.5-1.3,6.6c0.2,3.1,0.3,4.6,0.2,6c-0.1,1.3-1.1,1.4-2.6,1.8c-2.1,0.6-6.3,1-9.7,1.9
		c-3.1,0.8-4.3,1.6-4.8,4.1c-0.4,2-1.1,6.9-1.1,9.1c-0.1,0.9-0.1,1.4,1.1,1.1c0.7-0.1,2.4-0.4,4.7-0.6c2.8-0.2,6-0.2,8.4-0.2
		c4.4,0,17.5,0.8,18.3,0.9c1.1,0.1,1.4,0,1.3-0.8c-0.1-1.1-0.3-4.6-0.4-6.6s-0.4-4.1,1.4-6.1c1.8-2,15-17.7,15.8-18.5
		c0.7-0.7,1.1-1.4,2-0.5c1,1,12,9.3,14.1,11c2.2,1.7,4.3,2.3,6.8,2.3c1.8,0.1,2.3,3.4,0.8,3.7c-1.6,0.3-4,0.8-5.7,1.3
		c-2.6,0.7-3.4,1.6-4.1,3.4c-0.7,1.6-1.4,9.2-1.4,9.9c0,0.5-0.1,1.2,0.7,1c3.2-0.7,8.2-0.9,13.7-0.7c6.2,0.2,12.3,0.8,13.1,0.8
		c0.9,0.1,1-0.1,1.5-0.8c0.8-1.3,3.1-4.1,5.2-6C199.9,163.1,200,162.8,199.6,161.5z M172.3,114.6c-0.8-0.8-7-8.8-9.1-11.2
		c-1-1.3-1.8-4,1.3-5.2c2.5-1,7-2.5,8.2-3.2c1.3-0.7,1.9-1.4,2-2.8c0.1-1.4,0.1-2.9,0.1-3.4c0-0.5,0.7-1,1-0.3
		c0.2,0.4,1.4,2.7,2.7,5.5c2,4,4.6,9.1,5.5,11.2c0.8,2,0.4,3.6-0.8,5.2c-1.7,2.2-6.4,4.5-7.6,4.9
		C174.1,115.8,173.1,115.3,172.3,114.6z"/>
	<path class="st0" d="M219.1,202.2c-11.4,0.3-18.9,8.1-18.7,19.4c0.3,11.4,7.5,18.2,19,17.9c11.7-0.3,18.8-7.9,18.8-19.9
		C238.3,209,230.5,202,219.1,202.2 M219.6,235.3c-6,0-9.6-4.9-9.8-13.5c-0.2-9.4,3.3-15.1,9.6-15.1c6.4,0,9.4,5.9,9.6,14.3
		C229.1,226.2,227.5,235.3,219.6,235.3"/>
	<path class="st0" d="M152.8,234.3c0,0-0.1,0.1-0.3,0.2c-1.2,0.5-3.5,0.8-5.9,0.5c-6.1-0.8-10.1-6.4-10.1-13.8
		c0-8.8,7.8-13.6,13-13.8c5.2-0.2,8.7,0.9,10.3,1.4l1.3-4.2c-3.7-1.7-8.3-2.3-12.4-2.3c-16.7,0-22.2,11.2-22.2,18.8
		c0,9.8,6.5,18.6,20.5,18.6c9.6,0,15.1-3.3,15.1-3.3v-15h-9.2V234.3z"/>
	<path class="st0" d="M159.7,208.7c0,0-0.1,0-0.1,0C159.6,208.6,159.7,208.7,159.7,208.7"/>
	<path class="st0" d="M159.4,208.6C158.7,208.4,159.1,208.5,159.4,208.6"/>
	<polygon class="st0" points="239.3,208.3 250.5,208.3 250.5,238 259.9,238 259.9,208.3 271.5,208.3 271.5,203.5 239.3,203.5 	"/>
	<path class="st0" d="M45.9,204.8c-2.5-1.1-4.1-1.3-11-1.3H16.5V238h9.8v-12.7h9.3c8.6,0,15.7-1.8,15.7-11.8
		C51.3,210.2,49,206.2,45.9,204.8 M33.3,221.4h-7v-13.6l7.4,0c4.3,0,7.6,3,7.6,6.8C41.4,218.4,38.1,221.4,33.3,221.4"/>
	<path class="st0" d="M112.3,227.2c0,4.7-3.1,7.7-7.3,7.7h0c-4.3,0-7.5-2.8-7.5-8.1v-23.3h-9.2v20.8c0,5.8,1.4,8.5,3.4,10.5
		c3.3,3.3,7,4.7,13.2,4.7h0c6.3,0,9.9-1.7,13.2-5c2-2,3.3-4.4,3.3-10v-21h-9.2V227.2z"/>
	<polygon class="st0" points="55.4,238 81.9,238 81.9,232.5 64.7,232.5 64.7,221.3 78.6,221.3 78.6,217.1 64.7,217.1 64.7,208.4 
		81.9,208.4 81.9,203.5 55.4,203.5 	"/>
	<polygon class="st0" points="170,238 196.5,238 196.5,232.6 179.3,232.6 179.3,221.4 193.2,221.4 193.2,217.2 179.3,217.2 
		179.3,208.6 196.5,208.6 196.5,203.5 170,203.5 	"/>
</g>
</svg>
