<?xml version="1.0" encoding="utf-8"?>
<!-- Generator: Adobe Illustrator 26.0.1, SVG Export Plug-In . SVG Version: 6.00 Build 0)  -->
<svg version="1.1" id="Layer_1" xmlns="http://www.w3.org/2000/svg" xmlns:xlink="http://www.w3.org/1999/xlink" x="0px" y="0px"
	 viewBox="0 0 288 288" style="enable-background:new 0 0 288 288;" xml:space="preserve">
<g>
	<path d="M139.3,124.4c-0.7,0.4-1.2,0.9-1.7,1.3l0,0c-0.3,0.2-0.3,0.5-0.2,0.5c0.8,0.2,1.6,0.1,1.7-0.9
		C139.2,124.9,139.9,124,139.3,124.4z"/>
	<path d="M153.9,120.7L153.9,120.7h1.7l0.4,1.5h1.5l-1.9-7.3h-1.7l-1.9,7.4h1.5L153.9,120.7z M154.7,116.5l0.7,2.9l0,0h-1.3
		L154.7,116.5z"/>
	<path d="M147.9,122.2c0.6,0.2,1.3,0.2,1.7,0.1c0.2-0.1,0.7-0.5,0.7-0.5v0.5h1.1v-4h-2.2v1.1h0.9c0,0.5,0,1.1-0.2,1.4
		c-0.4,0.6-1.3,0.6-1.6-0.4c-0.1-0.4-0.1-1.3-0.1-2c0-1.1,0-1.8,0.3-2.3c0.2-0.3,0.6-0.4,1-0.3c0.4,0.1,0.5,0.8,0.5,1.3h1.3
		c0.1-0.9-0.5-2-1.2-2.3c-0.6-0.2-1.6-0.2-2.1,0.1c-0.7,0.4-1.3,1.6-1.3,2.6c0,1-0.1,2.1,0.1,3C147,121.3,147.4,122,147.9,122.2z"/>
	<polygon points="143.5,122.3 144.9,122.3 144.9,116.2 146.5,116.2 146.5,114.9 141.9,114.9 141.9,116.2 143.5,116.2 	"/>
	<polygon points="138.2,122.3 138.2,122.3 139.6,122.3 139.6,116.2 141.2,116.2 141.2,114.9 136.6,114.9 136.6,116.2 138.2,116.2 	
		"/>
	<polygon points="81.7,169.8 81.7,169.8 81.7,169.8 	"/>
	<path d="M89.7,105.8c0.7-0.1,1.4-0.6,1.8-1.1c0.4-0.5,1-2,1.1-3c6.1-3.7,12.5-6.8,19.8-8.2c3.5-0.6,7.6-0.5,11.1,0.8
		c1.5,0.5,4.4,2.3,6.1,4.1c-0.2-3.2-4-6.7-6.6-8.4c-0.2-1.5,2.9-4.2,4.7-5.2c-4-0.7-7.3,2.2-8.8,4.2c-0.5-0.1-2.8-0.3-4.1-0.3
		c0-0.1,0.7-2.6,1-3.4c0.5-1.1,1.1-2.2,2.1-3c0.5-0.5,1.2-0.9,1.6-1.5c-1.8-0.2-3.7,0.7-5,1.8c-1.8,1.5-3.3,4.2-4.5,6.7
		c-1.3,0.3-3.5,0.9-4.5,1.3c0.2-2,1.3-4.6,2.5-6.7c1-1.6,2.4-3.1,3.9-4.5c-2.9-0.2-6.6,2.8-8,4.8l0,0c-0.7,0.9-1.2,1.9-1.7,3
		c-0.7,1.6-1.3,3.3-1.7,5c-1.8,0.7-3.5,1.3-5.5,2.3c1-5.5,1.6-8.8,4.2-11.8c1.6-1.9,2.8-2.7,3-3c-3.6-0.2-8.1,4-9.6,8.1
		c-0.5,1.4-1.1,2.7-1.4,4.2c-0.3,1.5-1,4.9-1,5.1c-0.2,0.1-0.6,0.4-0.8,0.5c-0.2-0.1-0.5-0.3-0.8-0.4c-0.6-0.3-1.3-0.5-2-0.4
		c-0.6,0.1-1.8,0.8-2.1,2.5c-0.2,1.1-1.3,1.8-1.5,3c-0.2,1.3,0.7,2.2,1.2,2.5c0.8,0.4,2.2,0.1,2.7,0.4
		C87.9,105.5,88.8,105.9,89.7,105.8z"/>
	<path d="M159.7,119.2h0.9c0.7,0,0.7,1.8,0.7,2.5c0,0.3,0,0.6,0.2,0.6h1.4c0,0-0.2-0.3-0.2-0.4c0-0.6-0.1-1.6-0.1-1.9
		c-0.1-0.6-0.3-1.1-0.7-1.5c0.7-0.3,0.8-1.1,0.8-1.7c0-1-0.6-1.7-1.9-1.7h-2.5v7.3h1.4V119.2z M159.7,116h1c1,0,1,2-0.3,2h-0.8V116z
		"/>
	<polygon points="164.8,122.3 166.2,122.3 166.2,116.2 167.8,116.2 167.8,114.9 163.1,114.9 163.1,116.2 164.8,116.2 	"/>
	<path d="M139.6,61.1h10.2c0.4,0,0.7,0.3,0.7,0.7c0,0.4-0.3,0.8-0.7,0.8h-13.3l0,3.4h15c1.5,0,2.7-0.6,3-1.6c0.3-1,0.4-3.6,0-4.7
		c-0.4-1-1.5-1.8-2.9-1.8h-11.3c-0.8,0-0.8-1.6-0.1-1.6l14.4,0l0-3.3l-15.2,0c-1,0-2.1,0.3-2.8,1.5c-0.6,1-0.6,4.1,0,5.1
		C137.3,60.8,138.3,61.1,139.6,61.1z"/>
	<path d="M119.6,67l-0.2-5l10.1-0.7c0,0,0,0,0,0c0.7,0,1.3,0.5,1.3,1.2l0,0l0.1,3.8l3.3-0.1l0-3.4c0-1.4-0.3-2.5-1.2-3.2
		c1.1-0.8,1.1-2.6,1-4.1c-0.1-1.2-1.2-2.7-3.2-2.5l-15,1.1l0.7,13.2L119.6,67z M128.7,56.2c1.2-0.1,1.3,1.9,0,2l-9.5,0.6l-0.1-1.8
		L128.7,56.2z"/>
	<path d="M135.8,120.1v-5.1h-1.4v5.2l0,0c0,1.2-1.7,1.2-1.7,0v-5.3h-1.4v5.2C131.4,123.1,135.8,123.1,135.8,120.1z"/>
	<polygon points="180.6,63.9 191.3,65.7 191.3,65.7 190.9,70.8 194.5,71.4 195.6,58 191.9,57.3 191.6,62.4 180.7,60.7 181.1,55.6 
		177.5,55 176.7,68.4 180.2,68.9 	"/>
	<path d="M160.1,66.5c4.8,0.3,9.5,1,14,1.3l0.2-3.5c-3.4-0.2-9.6-0.8-12.8-1.2c-0.4-0.1-0.8-0.7-0.8-1c0-1.8,0.1-3.3,0.2-4.4
		c0.1-0.4,0.5-0.8,1.3-0.8l0,0c4.2,0.2,9.5,1,12.4,1.3l0.2-3.4c-5.8-0.8-9.4-1.2-13.9-1.3c-1.5,0-2.8,0.7-3.1,2
		c-0.4,2.2-0.6,6-0.5,8.6C157.4,65.6,158.6,66.4,160.1,66.5z"/>
	<path d="M80.5,73.7L80,68.5l10.5-2.6c3.8-0.9,3.1-9-1.4-7.9l0,0L76,61.1l1.2,13.5L80.5,73.7z M88.8,61.3c1.2-0.2,1.3,1.7,0.2,1.9
		l-9.5,2.4l-0.2-2L88.8,61.3z"/>
	<path d="M54.8,44.1l8.8,130.8c1.1,13.7,13.8,36.1,31.5,49.9c12.8,10,27.6,20.2,50.2,30.5c24.3-12.8,35.8-19.4,49.3-31.6l0,0
		c18.1-14.6,28.6-37.4,29.7-49.1l9-129.5C178.2,28.9,114.6,28.5,54.8,44.1z M214,170.3L214,170.3c-0.9,13.1-9.8,30.2-24.9,43.9
		c-12.1,10.5-27.4,21.1-44.3,29.6c-14.6-5.5-34.4-19.9-44.5-28.5C83.6,201,74.8,182.4,74,170.3L65.7,53.1
		c52.3-13.7,109-13.5,156.4,1.6L214,170.3z"/>
	<path d="M77.6,168.1c1,14.3,7.8,29.4,24.5,43.8c9.6,8.3,29.4,23.6,42.9,27.8c15-7.2,30.7-18.4,42.3-28.5l0,0
		c15.5-14.5,22.3-28.5,23.5-43.2l8-110.3c-45.1-14.4-99.5-14.4-149.3-1.3L77.6,168.1z M74.9,80.6c24.3-6.8,47.1-8.8,68-8.8l0,36.7
		l-26.8,0l0.1,2.6c-0.5,0.1-1.8,0.2-2.7,0.1c0-0.8,0.8-2.4,1.4-3.3c0.5-0.8,1.7-2.1,2.8-3c-1-0.3-2.5,0.2-3.5,0.7
		c-1.2,0.7-3.2,2.7-4.2,4.6c-0.3,0.6-0.5,1.2-1.1,1.5c-0.9,0.1-2.2,0.3-3.5,0.7c0.1-0.8,0.2-1.5,0.6-2.4c0.4-1,1-2.1,1.5-3
		c0.7-1.1,2.5-3,3.4-3.7c-2.6-0.1-6.1,2.5-7.8,5.1c-0.6,0.9-0.9,1.5-1.5,2.8c-0.4,0.8-0.6,1.9-1,2.8c-1,0.3-2.8,0.9-4.2,1.5
		c-0.2-0.6-0.2-0.9,0.1-1.7c0.6-2.5,2-5.5,3.4-7.5l0,0c0.6-0.8,2.7-2.7,2.9-3c-1.7-0.1-4,0.9-5.5,2.2c-1.9,1.7-3.7,4.9-4.4,7.2
		c-0.3,0.9-0.4,1.6-0.6,2.6c-0.2,0.9-0.4,2.1-0.5,2.5c-0.2,0.1-0.3,0.3-0.5,0.3c-1-0.5-2.3-1-3.2-0.4c-1.3,0.9-1.1,2.3-1.5,2.7
		c-0.4,0.4-0.9,0.9-1.1,1.5c-0.2,0.9,0.1,2,0.7,2.4c1.3,0.9,2.5,0.4,3,0.2c0.5-0.2,1.8,1.2,2.8,0.7c0.6-0.3,1.2-0.9,1.5-1.4
		c0.3-0.6,0.3-2,0.4-2.2c4.1-2.9,13.9-5.9,17.9-6.4c1.5-0.2,4.4,0,4.4,0.3V127c-0.4,0.1-2.1,1.1-3.1,1.8c-1.1,0.9-1.8,1.9-2.7,2.7
		c-0.5,0-1.8,0-2.6,0.1c0-0.3,0.1-0.9,0.3-1.4c0.6-1.8,1.5-3.1,2.5-4.5c-1.3-0.1-3.6,1.3-5.1,3.5c-0.5,0.7-1,2-1.4,3
		c-0.6,0.1-1.9,0.4-2.5,0.7c-0.1-0.4,0.1-1.1,0.3-1.7c0.4-1.5,1.5-3.8,3.1-5.5c-1.6-0.1-4.2,1.8-5.1,3.5c-0.8,1.5-1.5,3.5-1.9,5.3
		c-0.8,0.4-1.9,1.1-3,1.9c-0.1-1.1,0.1-1.8,0.3-2.9c0.3-1.6,1-3.9,1.8-5.3c0.4-0.8,0.6-1.2,1.2-1.9c-1.4-0.1-3.4,1.4-4.3,3
		c-0.5,0.9-1.3,2.4-1.6,3.5c-0.4,1.2-0.5,2-0.6,3.2c-0.1,0.7,0,1.8,0,2.6c-0.1,0.1-0.6,0.6-0.8,0.6c-0.2,0-0.4,0-0.5-0.1
		c-0.5-0.3-1.3-0.3-1.8,0c-1.2,0.8-1,2-1,2.3c0,0.3-0.7,1.4-0.5,2.1c0.1,0.6,0.9,1.7,1.7,1.5c0.8-0.2,1.7-0.1,2.4,0.2
		c0.8,0.3,2.2-0.7,2.2-1.9c0-0.6,0-1.3,0.4-1.6l4.2-3.3c1.5-1.2,4.8-2.6,5.8-3c4.2-1.6,10.9-0.8,12.4,0.2v13.5H79.9L74.9,80.6z
		 M116,129L116,129v4.1c-0.6-0.4-1.8-0.9-2.4-1.2C113.9,131.2,115.3,129.6,116,129L116,129z M88.2,189.6c-3.6-5.4-6.3-13.3-6.5-19.8
		l0,0l0,0l0,0l38.9,0c4.2,7.5,14.9,12.2,21.9,12.2l0.1,7.6H88.2z M142.5,235.3c-11.5-5.2-29.1-17.9-36.7-24.7l36.8,0.1h0
		L142.5,235.3z M119,152.9v-41.2l50.5,0l0,41.6C169.5,187.4,119,187.4,119,152.9z M207,167.8c-1.2,16.8-9.1,28.4-20.9,39.9
		c-7.3,7.1-24.4,20.1-40,28l0-53.7c3.7-0.1,8.1-1.3,11.4-2.9c-0.2,1.5-0.5,3.1-0.8,4.6c-0.6,0.4-1.2,0.7-1.8,0.9
		c-0.5-0.1-0.8-0.4-1.3-0.5c-0.5-0.1-1.1,0.2-1.4,0.3c-1.2,0.7-0.9,2.1-0.9,2.4c-0.1,0.7-0.7,1.5-0.7,2.1c0.1,0.8,0.5,1.5,1.2,1.8
		c0.4,0.2,1.3,0.4,2.1,0h0c0.6-0.3,1.6,0.5,2.4-0.1c0.6-0.4,1-1.5,0.8-2.1c5-3.6,12.8-5.2,17-6.1c5-1,11.1-0.8,15.3,2.4
		c0.9,0.7,1.9,1.9,2.6,3c0.3,0.5,0.5,1.1,0.7,1.7c0.7-1,0.4-4.3-0.9-6.2c-0.5-0.8-1.4-1.6-2.1-2.2c-1-0.9-2.7-1.9-3.6-2.2
		c0.4-0.7,1.4-1.2,2-1.4c0.9-0.4,1.9-0.5,2.9-0.5c-0.9-0.8-3-1.1-4.7-0.7c-1.5,0.3-2.8,1-4.1,1.8c-1.1-0.1-3-0.1-3.3-0.2
		c-0.1-0.2,0.1-0.7,0.3-1c1.2-2.2,2.7-3.6,4.1-4.5c-2.5-0.4-5.1,1.4-6.6,3c-0.6,0.7-0.8,1-1.2,1.5c-0.3,0.4-0.7,1.3-0.8,1.3
		c-1.3,0.2-4.3,0.6-5.3,0.9c0-0.3,0.1-0.5,0.1-0.7c0.5-1.4,1.5-2.8,2.4-3.7c1-1,2.5-2.8,4.6-3.7c-1.5-0.6-3.3,0.1-4.7,0.8
		c-2.3,1.2-4.2,3.1-5.6,5.2c-0.6,0.8-1.9,3.7-2,3.8c-0.9,0.3-2,0.7-3.1,1.2c0-0.1,0.2-3.3,0.7-5.1c8.3-6.5,11.2-15.6,11.2-24.2
		l35.4,0L207,167.8z M208.4,149.2l-35.7,0l0,0v-19.7l37.2,0L208.4,149.2z M212.9,88.9L212.9,88.9l-1.5,19.7l-65.2,0l-0.1-19.6
		L212.9,88.9L212.9,88.9L212.9,88.9z M215.2,60l-1.8,19.6c-41.3-12.5-91.1-13.7-138.6-1.8l-1.6-19.3C120.4,46.1,172.3,46.8,215.2,60
		z"/>
	<path d="M98.5,69.5c3.5-0.3,8.3-0.8,12.5-1.8c1.2-0.3,2.2-1.1,2.3-2.2c0.3-3.8,0-6.6-0.4-9.3c-0.2-1.2-1.4-2-2.9-1.8
		c-3.3,0.2-9.6,1.3-12.7,2c-1,0.2-1.9,1.3-2,2.2c-0.2,2.6,0,6.4,0.7,9.1C96.2,68.9,97.6,69.6,98.5,69.5z M98.6,60.6
		c0-0.3,0.3-0.7,0.9-0.9c2.4-0.5,7.2-1.2,9.1-1.3c0.7-0.1,1,0.2,1,0.5c0.2,0.9,0.4,3.6,0.2,4.6c0,0.3-0.2,0.8-0.7,0.9l0,0
		c-2.4,0.5-6.2,1-9.4,1.3c-0.3,0-0.7-0.2-0.8-0.5C98.8,63.9,98.5,61.5,98.6,60.6z"/>
	<path d="M121.9,121.9c0.7,0.5,1.5,0.6,2.2,0.4c0.6-0.1,1.3-0.7,1.5-1.2c0.4-1,0.3-1.7-0.1-2.4c-0.3-0.4-0.8-0.7-1.3-0.8
		c-0.6-0.2-1.5-0.4-1.5-1.4c0-0.3,0.5-0.8,0.9-0.8c0.6,0,1,0.4,1,1.1h1.2c0.1-0.8-0.2-1.5-0.8-1.9l0,0c-0.9-0.6-2.1-0.6-3,0.2
		c-0.6,0.6-0.9,2-0.1,2.9c0.7,0.7,2.6,0.8,2.6,1.9c0,0.1,0,0.1,0,0.2c0,0.5-0.5,0.9-1,0.9c-0.4,0-0.6-0.3-0.7-0.4
		c-0.1-0.2-0.2-0.5-0.2-0.8h-1.3C121.1,120.7,121.4,121.5,121.9,121.9z"/>
	<polygon points="211,72.5 200.6,69.8 200.8,67.7 200.8,67.7 211.2,70.1 211.4,67.5 201,64.9 201.2,62.6 211.7,65.2 212,62 
		197.9,58.6 196.7,72.2 210.7,75.5 	"/>
	<polygon points="127.8,122.3 129.2,122.3 129.2,116.2 130.8,116.2 130.8,114.9 126.2,114.9 126.2,116.2 127.8,116.2 	"/>
	<path d="M161,149.8c0.9,0.7,2.4,1,3.1,1.1c0.8,0.1,1.7-0.1,2.2-0.6c0.4-0.4,0.5-1.3-0.5-1.5c-0.2,0-0.5-0.1-0.3-0.6
		c0.1-0.4,1.8-0.5,1.7-1.1c-0.1-0.4,0-0.9,0.1-1.3c0.2-0.4-1.2-0.1-0.9-0.7c0.3-0.5,0.6-1.6,0.4-1.7c-0.4-0.1-1.3,0.4-2.1,0.9
		c-0.3,0.2-0.4,0.1-0.5-0.1c-0.1-0.1,0.2-0.7,0.9-1c0.6-0.3,0.4-1.4,0.9-1.6c0.6-0.4,1.5-1.3,1.2-1.7c-0.2-0.3-1,0.3-1.3-0.1
		c-0.2-0.3,1-1.5,0.7-1.7c-0.5-0.3-2.3,1.3-2.7,0.9c-0.2-0.2,0.6-1.1,0.9-1.2c0.4-0.1,0.7-0.5,0.5-0.7c-0.4-0.4-1-0.2-1.8,0.4
		c-0.4,0.3-0.8,0.9-1.3,0.9c-0.6,0.1-0.5-0.5,0-1.3c0.8-1.2,3.5-1.3,3.8-1.6c0.6-0.6-0.2-1.6-0.2-2.1c-0.1-0.6,0.8-1,0.4-1.4
		c-0.2-0.3-0.9,0-1.1,0.3c-0.3,0.5-0.6,1.5,0,2.4c0.2,0.4-2.7,0.4-3.6,0.7c-1.5,0.4-1.5,2.7-3,3.3c-0.3,0.1-0.4-0.4-0.8-0.3
		c-0.5,0.1-0.4,1.1-0.2,1.5c0.6,1.1,0.7,2,0.7,3.7c0,1.5,2.5,2,2.8,3.5c0.1,0.4-0.2,1-0.7,1.1c-0.6,0.2-1.4,0.1-1.9-0.1
		c-0.6-0.4-1.8-1.3-2.9-1.5c-0.9-0.2-2.5-0.2-3.4-0.1c-1.9,0.1-3.9-0.8-5.8-1.8c-0.4-0.2-0.7-0.4-1.1-0.7c-0.4-0.4-0.4-1.1,0-1.4
		c0.3-0.2,1-0.1,1.3-0.4c0.2-0.3,0.1-0.9,0.5-1.2c0.5-0.3,1.3,0.2,1.9,0c0.1,0,0.3-0.2,0.3-0.4c0-0.1-1.2-0.8-0.7-1.1
		c0.3-0.2,1.8,0.2,2.4-0.2c0.1-0.1-0.1-0.7-0.6-0.7c-0.5,0.1-1,0.1-1.5-0.1c-0.1-0.1-0.2-0.1-0.2-0.3c0-0.4,0.4-0.5,0.3-0.8
		c-0.1-0.3-0.7-0.1-0.8-0.4c0-0.3,0.5-0.3,0.6-0.4c0.3-0.1,1-0.2,1.7-0.2c0.5,0,0.7-0.1,0.7-0.4c0-0.3-0.5-0.5-0.8-0.5
		c-0.5-0.1-1,0-1.1-0.3c0-0.1,0.2-0.2,0.4-0.3c0.4-0.2,1.1-0.2,1.5-0.3c0.2-0.1,0.5-0.2,0.5-0.4c0-0.3-0.2-0.4-0.4-0.5
		c-0.6-0.2-1.5-0.2-2.3-0.3c-0.4,0-0.7-0.8-0.4-1.1c0.3-0.4,1.5-0.7,2.1-0.9c0.3-0.1,0.4-0.5,0.2-0.7c-0.2-0.3-1,0.1-1.4,0.2
		c-0.6,0.1-2,0.3-2.1-0.4c0-0.2,0.4-0.4,0.3-0.7c-0.1-0.3-0.8,0.1-0.9-0.3c-0.1-0.6,0.7-0.7,1.8-0.8c0.2,0,0.5-0.1,0.7-0.2
		c0.3-0.2,0.4-0.6-0.2-0.6c-1.2,0-2.3,0.2-3.5,0.5c-0.3,0.1-0.6-0.1-0.7-0.3c-0.1-0.2,0.1-0.4,0.3-0.6c0.2-0.2,0.6-0.1,0.8-0.2
		c0.2-0.1,0.4-0.2,0.3-0.4c-0.1-0.3-0.6-0.1-0.8-0.1c-0.6,0.1-1.2,0.2-1.9,0.4c-0.3,0.1-0.9,0.1-1.4-0.2c-0.4-0.3,0.2-0.7-0.2-1
		c-0.6-0.5-1.2,0.8-1.3,1.5c0.7,0.7,1.4,1.4,2,2.2c1.4,1.9,1.8,4.2,1.6,6.7c-0.1,0.9-0.2,1.8-0.5,2.5c0-1.6,0-2.6-0.1-3.5
		c-0.1-2.1-0.8-4.4-2.4-6c-0.5-0.5-1.1-1-1.7-1.5c0-0.5,0.3-0.9,0.2-1.4c-0.4,0.4-1,0.7-1.6,0.8c-0.9,0.1-1.9-0.3-2.6,0.3
		c-0.2,0.2-0.3,0.5-0.3,0.8l1.5,1c0.2,0.1,0,0.3-0.1,0.4c-0.5,0.3-1.4,0-2-0.1c-0.3,0-1.6,1.2-2.3,1.8c-0.2,0.2-0.5,0.3-0.6,0.6
		c-0.1,0.2-0.1,0.5-0.2,0.7c-0.2,0.2-0.5,0.1-0.7,0.3c-0.2,0.3-0.2,0.9,0.1,1c0.5,0.2,1.7-0.7,1.7-0.1c0,0.4-0.6,0.9-0.3,1.3
		c0.3,0.3,1,0.1,1.2-0.2c0.3-0.4,0.6-0.8,0.9-1c0.6-0.4,2.3-0.4,2.2,0.2c-0.1,0.7-0.6,1.6-1.2,2.2h0c-1,1.2-2.6,2.6-3.1,3.7
		c-0.3,0.6-0.4,3.1-0.8,3.5c-0.5,0.4-1.1,0-1.6-0.3c-1-0.5-1.6-1.3-2.6-2c-0.2-0.1-0.7,0-0.9,0.2c-0.5,0.5-2.9,3.6-3.8,5.2
		c-0.4,0.7-0.2,1.5-0.5,2.2c-0.2,0.6-0.5,1.1-0.9,1.5c-0.1,0.6-0.1,1.2,0,1.7c0.1,0.2,0.2,0.4,0.3,0.4c0.4,0,1.9-0.6,2.1-1.3
		c0.1-0.3,0-0.5-0.1-0.7c-0.2-0.4-0.3-0.7-0.2-1.1c0.1-0.4,0.4-0.8,0.7-1.1c0.3-0.3,0.7-0.6,0.7-1.1c0-0.3-0.1-0.5-0.1-0.7
		c0.1-1,0.9-1.8,1.9-2.2c0.3,0,0.7,0.1,1,0.2c0.4,0.2,0.7,0.6,1,1c0.3,1,0.6,2,1.2,2.9c0.1,0.1,0.5,0.6,0.8,0.6
		c0.3,0,0.5-0.3,0.8-0.3l1.1,1.1c-1.7,0.5-3.5,0.8-5.3,0.9c-0.3,0.1-0.6,0.5-0.7,0.8c-0.2,0.7,0.2,1.5,0.4,2.2c0.2,1,0.3,2,0.2,3
		c0,0.5-0.1,1-0.1,1.5c0.1,0.5,0.2,1.2,0.6,1.5c0.4,0.3,0.7,0.5,1,0.9c0.1,0.2,0.1,0.5,0.3,0.7c0.3,0.5,0.8,0.9,1.3,1.2
		c0.2,0.1,0.5,0.2,0.7,0.1c0.2-0.2,0.6-1.2,0.6-1.6c0-0.4-0.1-0.9-0.6-1c-0.4-0.1-0.8,0.2-1.1,0c-0.5-0.4-0.3-1.2-0.3-1.7
		c0-0.5-0.1-1.2-0.4-1.5c-0.2-0.2-0.5-0.3-0.6-0.6c-0.1-0.2,0.1-0.5,0.1-0.8c0.1-0.5-0.1-1-0.1-1.5c0-0.4,0.1-0.8,0.4-1
		c0.2-0.1,0.4-0.2,0.7-0.2c1.4,0.4,3.3,0.9,4.3,1c0.8,0.1,1.7,0.2,2.4,0c0.4-0.1,0.7-0.7,1.1-0.6c0.5,0.1,1.1,0.9,1.8,1.2
		c2.5,1,5.2,1.3,7.9,1.2c0.1,0,0.4,0.1,0.4,0.1c-0.3,0.4-0.5,1-0.3,1.5c0.4,0.8,1,1.5,1.6,2.3c0.6,0.8,0.7,2.1,0.2,3
		c-0.4,0.8-1.1,1.4-1.9,1.9c-0.5,0.3-1,0.6-1.5,0.7c-0.5,0.2-1.2,0.2-1.6,0.4c-0.5,0.2-1.3,1-1.9,1.5c-0.4,0.4-0.7,0.9-0.9,1.5
		c-0.2,0.5-0.5,1.3,0,1.6c0.5,0,1-0.1,1.4-0.4c0.3-0.2,0.8-0.5,0.8-0.7c0.1-0.4-0.2-0.9,0.1-1.2c0.5-0.8,1.8-0.2,2.5-0.7
		c0.3-0.2,0.5-0.5,0.7-0.8c1.3-1.6,3.5-2,5.2-3c0.1-0.2,0.2-0.4,0.2-0.7c0-0.7-0.2-1.3-0.1-1.9c0.1-0.4,0.3-1.2,0.7-1
		c0.1,0.1,1.2,1.1,2,1.5c0.6,0.3,1.3,0.4,1.9,0.8c0.4,0.4,0.7,0.9,0.7,1.5c0,0.2-0.1,0.4-0.3,0.7l-2.1,3l-2.7,2.2
		c-0.2,0.2-0.5,0.4-0.6,0.7c-0.4,0.8-0.6,1.6-0.8,2.6c0,0.1,0,0.3,0.1,0.3c0.4,0,0.7-0.1,1-0.2c0.7-0.2,1.6-0.6,1.5-1.3
		c-0.1-0.4-0.3-0.8-0.2-1.2c0.4-0.4,1-0.5,1.5-0.7c0.7-0.2,1.8-0.7,1.9-1.2c0.2-1.4,1.1-2.7,2.2-3.7c0.3-0.3,1.5-1.1,1.6-1.5
		c0.1-0.2,0-0.5-0.1-0.8c-0.7-0.8-1.3-1.7-1.7-2.7c-0.2-0.4-0.3-1-0.2-1.5c0.4-1.8,1.8-3,2.3-4.5c0.2-0.7,0.4-1.6,0.1-2.4
		c-0.1-0.5-0.5-1.1-0.4-1.4C160.3,149.7,160.8,149.6,161,149.8z"/>
	<path d="M172.3,212.7c-1-0.8-2-1.5-3.1-2.1c0-0.2,0.2-0.4,0.3-0.6c0.5-0.5,1.1-0.9,1.8-1.2c-1.3-0.4-3.2,0.7-3.9,1.3
		c-0.2,0-1.6,0.1-2,0.1c-0.1,0-0.1-0.4,0-0.6c0.6-1.2,1.5-2.1,2.9-2.7c-2.2-0.6-3.8,0.9-4.9,2.4c-0.3,0.4-0.8,1-1,1.4
		c-0.3,0.1-1.4,0.4-1.9,0.5c-0.2-0.1-0.2-0.5-0.1-0.7c0.4-1.8,1.8-3.2,3.4-4.2c-0.7-0.1-1.3,0.1-2,0.4l0,0c-1.4,0.6-3,2.3-3.7,3.6
		c-0.3,0.5-0.8,1.6-1,2.1c-0.5,0.2-0.9,0.4-1.3,0.7c0-0.4,0-1.3,0.1-1.8c0.3-1.5,1.3-3.2,2.4-4.5c-1.7-0.1-3.8,2-4.4,3.7
		c-0.4,1.2-0.7,2.3-0.8,3.5c-0.1,0.1-0.2,0.2-0.4,0.3c-0.4-0.3-0.9-0.3-1.4-0.1c-0.8,0.4-0.8,1.4-0.9,1.5c-0.3,0.3-0.7,0.7-0.7,1.3
		c0,0.6,0.4,1.1,0.4,1.1c0.3,0.3,1.5,0.1,1.7,0.3c0.3,0.5,1.2,0.3,1.6,0c0.6-0.5,0.7-1.2,0.7-1.7c2.8-1.6,6-3,9.2-3.7
		c0.8-0.2,2.4-0.4,3.8-0.4c2,0.1,5.7,1.8,6.8,2.8C173.5,214,172.8,213.2,172.3,212.7z"/>
	<polygon points="212.9,88.9 212.9,88.9 212.9,88.9 	"/>
	<path d="M178.9,195.9c0.4-0.6,0.8-0.9,1.7-1.3c0.6-0.3,1.4-0.4,2.3-0.4c-1.2-1.3-3-0.8-4.2-0.5c-0.9,0.2-2.8,1.4-2.9,1.4
		c-0.7-0.1-2-0.2-2.7-0.3c0-0.2,0.2-0.5,0.4-0.8c0.8-1.3,3.1-3.1,4.4-3.5c-1.3-0.6-3.5,0.1-4.5,0.8c-1.3,0.9-2.9,2.8-3.6,3.6
		c-0.9,0-2.6,0.3-4,0.6c0.1-0.4,0.5-1,1-1.8c0.4-0.7,2.2-2.3,3.1-2.9c0.9-0.6,1.8-1.2,3.1-1.5c-1.1-0.6-3.7-0.1-5.3,0.7
		c-1.2,0.5-2.9,1.9-4,3.8c-0.3,0.5-1,1.8-1.6,2.7l0,0c-1.1,0.4-2.2,0.9-3.2,1.4c0.1-1.3,0.5-2.7,1-3.6c0.6-1.1,1.2-2,2-3
		c0.5-0.6,0.9-0.9,1.6-1.5c-2.4,0-4.5,1.7-5.7,3.5c-0.8,1.2-1.4,2.4-1.9,3.7c-0.3,0.8-0.7,1.7-0.9,2.7c-0.2,0.1-0.5,0.3-1,0.5
		c-0.5-0.1-0.9-0.5-1.5-0.5c-1,0.1-1.8,0.8-1.7,2c0,0-0.7,0.7-0.9,1.3c-0.2,0.7,0.1,1.8,0.8,2c0.6,0.3,1.5,0,1.8-0.1
		c0.2-0.1,1.2,0.9,2.3,0.3c0.5-0.2,0.9-1.3,0.7-2.1c2.8-1.9,8.4-4.2,12.9-4.8c3.5-0.5,7.9-0.1,11.2,1.1c1.1,0.4,1.7,0.9,2.6,1.4
		c0.6,0.4,1.4,1,1.9,1.8c0.3-1-0.3-2.4-0.7-3C182.6,197.9,180.7,196.9,178.9,195.9z"/>
</g>
</svg>
