<?xml version="1.0" encoding="utf-8"?>
<!-- Generator: Adobe Illustrator 26.0.1, SVG Export Plug-In . SVG Version: 6.00 Build 0)  -->
<svg version="1.1" id="Layer_1" xmlns="http://www.w3.org/2000/svg" xmlns:xlink="http://www.w3.org/1999/xlink" x="0px" y="0px"
	 viewBox="0 0 288 288" style="enable-background:new 0 0 288 288;" xml:space="preserve">
<g>
	<g>
		<path d="M246.8,134.5c-5.2-56.6-55.7-98.5-112.3-93.3l0,0c-56.6,5.3-98.5,55.8-93.2,112.4c5.2,56.6,55.7,98.5,112.3,93.3
			C210.1,241.6,252,191.1,246.8,134.5z M152.7,240.5c-53.6,5-101.3-34.7-106.3-88.2C41.5,98.7,81.1,51,134.7,46l0,0
			C188.3,41.1,236,80.7,241,134.3C245.9,187.9,206.3,235.6,152.7,240.5z"/>
		<path d="M68.1,90.3l-1-3.7c-1,1.1-2,2.3-2.4,3.3l0.8,1.6l-2.1,0.2c-0.9,1-1.3,1.7-1.8,3.1l3.7,0C66,93.2,67,91.6,68.1,90.3z"/>
		<path d="M82.3,206.1L82.3,206.1l4.8,4.1l3.1-2.2l4.9,3.9l-1.3,3.7l4.7,4.2l6.9-18.5l-6.9-4.8L82.3,206.1z M96.9,208.1l-3.3-2.7
			l6.1-4.1L96.9,208.1z"/>
		<polygon points="111.2,85.4 105.1,75.2 117,82.3 125.5,79 112,70.4 114.1,56.8 105.5,60.2 104.2,73.6 98.4,63.9 91.4,68.2 
			91.4,68.2 104,89.8 		"/>
		<path d="M202.4,88.4c5.6-8.1,3.3-14.5-5.7-20.1l-7.9-5h0L174.4,84l7.5,5.2C190.6,95.1,196.8,96.5,202.4,88.4z M192.1,72.4
			L192.1,72.4c4.5,3.1,7.6,4.5,3.6,10.6c-4,6.1-7.3,3.9-11.2,0.7L192.1,72.4z"/>
		<path d="M123.6,220c-0.5,1.7-1,3.8-3.4,3.3c-2.4-0.5-1.8-3-1.3-4.6l2.8-9.7l-6.2-1.9l0,0l-2.8,9.9c-1.5,5.2,1,8.9,6.2,10.2
			c4.5,1.2,8.9-0.4,10.2-5.6l2.8-9.9l-5.5-1.5L123.6,220z"/>
		<path d="M150.4,78.1c9-0.1,15.2-3.5,14.9-13.8c-0.2-10.3-7.4-12.2-15.6-12.6c-8.2-0.4-14.7,4.6-14.5,13.7
			C135.4,74.5,141.4,78.3,150.4,78.1z M144.5,64c0.3-3.1,1.2-7.1,5.9-7.3c3.1-0.1,6.3,2.4,5.6,8.3c-0.7,6.3-3.2,7.9-6.2,7.9
			C146.9,72.9,143.9,71.3,144.5,64L144.5,64z"/>
		<path d="M78.6,111l4.3,3.2c8.6-6,13.1-15.7,6.3-20.9c-7.9-5.9-13.2,5.6-16.7,5.1c-2.2-0.3,0.2-5.6,4.9-9.7l-3.3-2.8
			c-10.1,7.8-12.1,18-4.6,21.5c6.1,2.7,12.5-7.9,14-7.3C88.9,102.1,79.9,110.2,78.6,111z"/>
		<path d="M137.3,83.4L137.3,83.4c-33,3.1-57.4,32.4-54.3,65.4c3.1,33,32.4,57.4,65.4,54.3c33-3.1,57.3-32.4,54.3-65.4
			C199.7,104.7,170.3,80.3,137.3,83.4z M169.9,183.9c-0.8-0.1-1.3-0.6-1.5-1.4l0-1.6c-0.1-1.3-0.6-2-1.7-2.2l0,0l-46.1-4.3
			c-4-1-7.7,0.1-11.2,3.1c-1.9,1-8,0.8-8.9-1.7c-1.8-6.9-2.7-9.9-7.4-13.8c-1.4-1.6-1.2-2.8,0.7-3.5l13.8,1.3
			c2.5,0.3,4.3,0.9,5.7,1.7l7.4,4.2c0.6,0.4,3.3,0.7,3.4-2.1c0.3-7.6-2.9-16.3-8.9-23c-1.9-2-4.6-3.7-7.4-5.4
			c-2.3-1.1-4.6-1.9-6.9-2.1c-4.6-0.3-7.3-1-8-2c-2.8-2.1,0.5-7.9,1.7-10.9c1.4-3.3,3.4-6.4,6.5-7.8c4.8,0.7,11,3.9,18,8.5
			c2.2,0.3,2.9-0.5,1.6-2.5c-4.9-4.5-16.7-8.4-16.4-11c2-4.7,8.5-8.6,13.4-11.6c3.4-2.2,7.3-3.7,10-3.3c3,1,8.1,7.4,15.7,17.5
			c1.4,2,3.9,0.3,2.8-1.9c-1.5-2.2-3.4-4.9-4-5.9c-4.3-5.6-8-9.3-8-10.8c0.7-3.2,8.5-3.5,18.8-1.8c18.9,13.9,25.6,44.8,13.3,75
			c-0.4,1-0.7,2.5-0.7,3.6c0,1.2,0.7,1.8,2,1.8c1.2,0,1.8-0.3,2.2-1.3c0-1.3-0.3-2.1,0.5-3.2c5.1-0.8,15.4,5.1,18.1,10.3
			C184.9,180,176.7,183.9,169.9,183.9z"/>
		<path d="M227.4,103.5l-29.4,1.4l3.5,7.6l6.2-0.3l3.4,8.1l-4.6,4.1l3,8.2l22.1-19.8L227.4,103.5L227.4,103.5z M215.7,116.9
			l-2.3-5.4l9.5-1.2v0L215.7,116.9z"/>
		<polygon points="157,212 141.6,212.6 141.9,217.1 146.7,216.9 147.5,230.7 147.5,230.7 153.5,230.4 152.7,216.6 157.3,216.4 		"/>
		<path d="M172.5,205.7c-5.9,3.1-7.7,10.7-2.9,16.4l0,0c3.3,3.9,12.2,2.3,15.2-1c3.9-4.4,2.8-11.1-0.5-14.4
			C181.5,204,176.1,203.9,172.5,205.7z M179.4,219.4c-2.6,1.2-5.2-1.1-6.2-3.4c-1.1-2.3-1.1-5.9,1.4-6.9c2.2-0.9,4.7,0.3,6,3.5
			C181.5,214.7,181.9,218.2,179.4,219.4z"/>
		<path d="M152.4,147.3L152.4,147.3c-4.4,0.4-7.7,4.4-7.3,8.8c0.4,4.5,4.4,7.8,8.8,7.4c4.5-0.4,7.8-4.4,7.4-8.8
			C160.8,150.2,156.9,146.9,152.4,147.3z"/>
	</g>
</g>
</svg>
