<?xml version="1.0" encoding="utf-8"?>
<!-- Generator: Adobe Illustrator 27.3.1, SVG Export Plug-In . SVG Version: 6.00 Build 0)  -->
<svg version="1.1" id="Layer_1" xmlns="http://www.w3.org/2000/svg" xmlns:xlink="http://www.w3.org/1999/xlink" x="0px" y="0px"
	 viewBox="0 0 288 288" style="enable-background:new 0 0 288 288;" xml:space="preserve">
<path d="M144,75.3c29.4,0,61,6,86.1,21.9c16.3,10.4,31.5,26.2,31.5,46.8c0,24.1-20.5,41.6-40.2,51.8c-23.4,12.1-51.1,16.9-77.3,16.9
	c-29.4,0-60.9-5.9-86-21.9c-16.3-10.4-31.5-26.2-31.5-46.8c0-24.2,20.5-41.6,40.2-51.8C90.2,80.1,117.8,75.3,144,75.3L144,75.3z
	 M143.8,82.6c-27.4,0-56.8,5.1-80.6,19.4c-14.9,8.9-29.7,23-29.7,41.7c0,21.9,20,37.3,37.9,46.1c22.1,10.8,48,15,72.4,15
	c27.4,0,56.9-5.1,80.7-19.4c14.9-9,29.7-23,29.7-41.7c0-22-19.9-37.4-37.9-46.1C194.1,86.7,168.2,82.6,143.8,82.6L143.8,82.6z
	 M40.5,128.5l45-7.7l13.6-29.4l13.5,29.4l45,7.7l-45,7.8l-13.5,29.5l-13.6-29.5L40.5,128.5L40.5,128.5z M139.5,150.9l19.9-3.5
	l5.9-13.3l5.9,13.3l19.9,3.5l-19.9,3.4l-5.9,13.3l-5.9-13.3L139.5,150.9L139.5,150.9z M180.6,115.4l19.9-3.4l5.9-13.4l5.9,13.4
	l19.9,3.4l-19.9,3.5l-5.9,13.3l-5.9-13.3L180.6,115.4z M159.4,178.4l19.8-3.4l5.9-13.4l6,13.4l19.9,3.4l-19.9,3.5l-6,13.3l-5.9-13.3
	L159.4,178.4z M98.3,183.2l19.9-3.4l6-13.4l5.9,13.4l19.9,3.4l-19.9,3.5l-5.9,13.3l-6-13.3L98.3,183.2z M198.2,150.3l19.8-3.5
	l5.9-13.3l6,13.3l19.9,3.5l-19.9,3.4l-6,13.3l-5.9-13.3L198.2,150.3z"/>
</svg>
