<?xml version="1.0" encoding="utf-8"?>
<!-- Generator: Adobe Illustrator 26.0.1, SVG Export Plug-In . SVG Version: 6.00 Build 0)  -->
<svg version="1.1" id="Layer_1" xmlns="http://www.w3.org/2000/svg" xmlns:xlink="http://www.w3.org/1999/xlink" x="0px" y="0px"
	 viewBox="0 0 288 288" style="enable-background:new 0 0 288 288;" xml:space="preserve">
<g>
	<path d="M147.4,190.7l22.9-128.9c21.8,0,28.7,2.4,29.7,12.2c0,0,14.7-5.5,22-16.6c-28.8-13.4-57.8-14-57.8-14l-16.9,20.6l0,0
		l-16.9-20.6c0,0-29,0.6-57.8,14c7.4,11.1,22,16.6,22,16.6c1-9.8,7.9-12.2,29.6-12.2L147.4,190.7L147.4,190.7z"/>
	<path d="M147.4,37.5c23.3-0.2,50,3.6,77.3,15.5c3.7-6.6,4.6-9.5,4.6-9.5c-29.9-11.8-57.8-15.9-81.9-16c-24.1,0.1-52,4.1-81.9,16
		c0,0,1.3,3.6,4.6,9.5C97.4,41.1,124.1,37.3,147.4,37.5L147.4,37.5L147.4,37.5z"/>
	<path d="M99.4,241.6h17.4c2.4-0.5,4.2-2.6,4.7-4.7H94.7C95.2,239,97,241.1,99.4,241.6L99.4,241.6z"/>
	<path d="M99.4,250.9h17.4c2.4-0.5,4.2-2.6,4.7-4.7H94.7C95.2,248.3,97,250.4,99.4,250.9L99.4,250.9z"/>
	<path d="M99.4,260.4h17.4c2.4-0.5,4.2-2.6,4.7-4.7H94.7C95.2,257.8,97,259.9,99.4,260.4L99.4,260.4z"/>
	<path d="M211.8,241.6h17.5c2.4-0.5,4.2-2.6,4.7-4.7h-26.9C207.6,239,209.4,241.2,211.8,241.6L211.8,241.6z"/>
	<path d="M54,237c0.5,2,2.3,4.1,4.7,4.7h7.3l0.4,0.1v18.5H71v-18.5l0.4-0.1h7.4c2.5-0.6,4.2-2.6,4.7-4.7v0L54,237L54,237L54,237z"/>
	<path d="M194,260.4c2.3-1,3.5-2.7,4-4.6h-20.4l0-18.8l-4.6,0v23.4H194L194,260.4z"/>
	<path d="M139.2,241.6h16.1c2.4-0.7,4.5-2.6,5-4.6h-25.6v13.8h21v4.9l-16.4,0c-2.6,0.7-4.8,2.4-5.8,4.7l1.3,0h25.5v-14.2h-20.9
		V241.6L139.2,241.6z"/>
	<polygon points="207.8,246.2 207.8,260.4 212.3,260.4 212.3,251 228.8,251 228.8,260.4 233.4,260.4 233.4,246.3 207.8,246.2 	"/>
</g>
</svg>
