<?xml version="1.0" encoding="utf-8"?>
<!-- Generator: Adobe Illustrator 26.0.1, SVG Export Plug-In . SVG Version: 6.00 Build 0)  -->
<svg version="1.1" id="Layer_1" xmlns="http://www.w3.org/2000/svg" xmlns:xlink="http://www.w3.org/1999/xlink" x="0px" y="0px"
	 viewBox="0 0 288 288" style="enable-background:new 0 0 288 288;" xml:space="preserve">
<style type="text/css">
	.st0{fill:#231F20;}
</style>
<g>
	<g>
		<path d="M137.1,180.8c-11.5-7.2-20-32.1-20-61.7c0-1.1,0-2.2,0-3.2l0,0l0,0l0,0c-32-5-55.2-18.8-55.7-35.1l0,0L61.3,81l0,0
			C53.5,90.7,49,102,49,114c0,35.3,38.7,64.2,87.9,66.8l0,0H137.1L137.1,180.8L137.1,180.8z M34.2,116.6
			c0-39.5,49.1-71.5,109.8-71.5c60.6,0,109.8,32,109.8,71.5s-49.1,71.5-109.8,71.5C83.4,188.1,34.2,156.1,34.2,116.6L34.2,116.6
			L34.2,116.6L34.2,116.6z M144,55.4c11.7,0,21.7,17.8,25.3,42.5l0,0l0,0l0,0c22.8-3.5,38.7-11.7,38.7-21.2
			c0-12.8-28.7-23.1-64.1-23.1S79.8,63.9,79.8,76.7c0,9.5,15.9,17.7,38.7,21.2l0,0l0,0l0,0C122.3,73.2,132.3,55.4,144,55.4L144,55.4
			L144,55.4L144,55.4z M151.1,180.8c49.1-2.6,87.9-31.5,87.9-66.8c0-12-4.5-23.3-12.3-33l0,0l-0.1-0.2l0,0
			c-0.6,16.3-23.7,30.1-55.7,35.1l0,0l0,0l0,0c0,1.1,0,2.1,0,3.2c0,29.6-8.5,54.4-20,61.7l0,0L151.1,180.8L151.1,180.8L151.1,180.8z
			 M144,99.8c5.2,0,10.3-0.2,15.2-0.7l0,0l0,0l0,0C156.8,83.2,150.9,72,144,72s-12.8,11.2-15.2,27.1l0,0l0,0l0,0
			C133.7,99.6,138.8,99.8,144,99.8L144,99.8L144,99.8L144,99.8z M144,158.6c8.8,0,16-18.3,16.4-41.3l0,0l0,0l0,0
			c-5.3,0.5-10.8,0.7-16.4,0.7c-5.6,0-11.1-0.3-16.4-0.7l0,0l0,0l0,0C128,140.2,135.2,158.6,144,158.6L144,158.6L144,158.6
			L144,158.6z"/>
	</g>
	<g>
		<path class="st0" d="M186.3,221.6c-0.2-11.8-9.7-21.3-21.3-21.3c-11.9,0-21.3,9.5-21.3,21.3c0,11.6,9.5,21.1,21.3,21.3
			C176.6,242.7,186.1,233.2,186.3,221.6 M153.3,221.6c-0.2-7.5,5.1-13.5,11.8-13.5c6.4,0,11.6,6,11.7,13.5
			c-0.1,7.3-5.4,13.4-11.7,13.5C158.3,235,153.1,228.9,153.3,221.6"/>
		<polygon class="st0" points="210.4,209.3 222.7,209.3 222.7,202 188.6,202 188.6,209.3 201.4,209.3 201.4,241.8 210.4,241.8 		"/>
		<path class="st0" d="M233.3,232.8h16.3l3.3,9h10.6L247.3,202h-11.2l-16.8,39.8H230L233.3,232.8z M241.8,211.5l5.6,14.6h-5.6h-5.6
			L241.8,211.5z"/>
		<polygon class="st0" points="36.7,241.8 45.7,241.8 45.7,209.3 58,209.3 58,202 24.4,202 24.4,209.3 36.7,209.3 		"/>
		<path class="st0" d="M102.8,221.6c-0.2-11.8-9.7-21.3-21.3-21.3c-11.8,0-21.3,9.5-21.3,21.3c0,11.6,9.5,21.1,21.3,21.3
			C93.2,242.7,102.7,233.2,102.8,221.6 M69.8,221.6c-0.2-7.5,5.1-13.5,11.8-13.5c6.5,0,11.8,6,11.8,13.5c0,7.3-5.3,13.4-11.8,13.5
			C74.9,235,69.6,228.9,69.8,221.6"/>
		<polygon class="st0" points="123,241.8 127.5,241.8 127.5,226.6 143.2,202 133.1,202 123,218.8 113.5,202 102.8,202 118.5,226.6 
			118.5,241.8 		"/>
	</g>
</g>
</svg>
