<?xml version="1.0" encoding="utf-8"?>
<!-- Generator: Adobe Illustrator 26.0.1, SVG Export Plug-In . SVG Version: 6.00 Build 0)  -->
<svg version="1.1" id="Layer_1" xmlns="http://www.w3.org/2000/svg" xmlns:xlink="http://www.w3.org/1999/xlink" x="0px" y="0px"
	 viewBox="0 0 288 288" style="enable-background:new 0 0 288 288;" xml:space="preserve">
<g>
	<path d="M144,231.2c-47.8,0-87-39.4-87-87.2c0-10.8,1.9-20.9,5.6-30.5l50.9,102.4c0.6,1.3,1.5,2.5,3.1,2.5c1.5,0,2.5-1.2,3.1-2.5
		l23.4-52.4c0.2-0.6,0.6-1.2,1.2-1.2c0.6,0,0.8,0.6,1.2,1.2l23.4,52.4c0.6,1.3,1.5,2.5,3.1,2.5c1.5,0,2.5-1.2,3.1-2.5l50.9-102.4
		c3.7,9.6,5.6,19.8,5.6,30.5C231,191.8,191.8,231.2,144,231.2z M144,124.2c-0.6,0-0.8-0.6-1.2-1.2l-27.3-61.5c8.8-3.3,18.4-5,28.4-5
		c10,0,19.6,1.7,28.4,5l-27.3,61.5C144.8,123.8,144.6,124.2,144,124.2z M116.1,187.4c-0.6,0-0.8-0.6-1.2-1.2L70.8,97.1
		c7.9-12.1,18.4-22.3,31.3-29.4l31.9,70.9c0.4,1.2,1.3,1.5,2.3,1.5h15.4c1.2,0,1.9-0.2,2.5-1.5l31.9-70.9
		c12.7,7.1,23.4,17.3,31.3,29.4l-44.6,89.1c-0.2,0.6-0.6,1.2-1.2,1.2s-0.8-0.6-1.2-1.2l-16.7-38c-0.6-1.3-1.3-1.5-2.5-1.5h-15.4
		c-1.2,0-1.9,0.2-2.5,1.5l-16.1,38C117.1,186.8,116.7,187.4,116.1,187.4z M144,240.1c53.2,0,96.1-42.8,96.1-96.1
		S197.2,47.9,144,47.9S47.9,90.8,47.9,144S90.8,240.1,144,240.1z"/>
</g>
</svg>
